<?xml version="1.0" encoding="utf-8"?>
<!-- Generator: Adobe Illustrator 21.0.0, SVG Export Plug-In . SVG Version: 6.00 Build 0)  -->
<svg version="1.1" id="Layer_1" xmlns="http://www.w3.org/2000/svg" xmlns:xlink="http://www.w3.org/1999/xlink" x="0px" y="0px"
	 width="50px" height="50px" viewBox="0 0 50 50" style="enable-background:new 0 0 50 50;" xml:space="preserve">
<style type="text/css">
	.st0{fill:#0072C6;}
</style>
<g>
	<g>
		<path class="st0" d="M44.2,19.6h-0.8c0.3-1.3,0.6-2.7,0.6-4.1C44,6.9,37.1,0,28.5,0C21.8,0,16,4.4,14,10.7
			c-1.1-0.3-2.2-0.6-3.4-0.6C4.7,10,0,14.7,0,20.7s4.7,10.7,10.5,10.7h7.6c-0.8-1.7-1.3-3.6-1.3-5.6c0-7,5.7-12.6,12.6-12.6
			S42,18.8,42,25.7c0,2-0.5,3.9-1.3,5.6h4c3-0.3,5.3-2.8,5.3-6C50,22.1,47.3,19.6,44.2,19.6z M29.4,38.4c-2.2,0-4.4-0.6-6.2-1.6
			L22.5,50l6.8-6.9l6.8,6.9l-0.6-13.3C33.7,37.8,31.6,38.4,29.4,38.4z M29.4,15.1c-5.9,0-10.6,4.8-10.6,10.6
			c0,5.9,4.8,10.6,10.6,10.6S40,31.6,40,25.7C40,19.8,35.2,15.1,29.4,15.1z"/>
	</g>
</g>
</svg>
