<?xml version="1.0" encoding="utf-8"?>
<!-- Generator: Adobe Illustrator 21.0.0, SVG Export Plug-In . SVG Version: 6.00 Build 0)  -->
<svg version="1.1" id="Layer_1" xmlns="http://www.w3.org/2000/svg" xmlns:xlink="http://www.w3.org/1999/xlink" x="0px" y="0px"
	 width="50px" height="50px" viewBox="0 0 50 50" enable-background="new 0 0 50 50" xml:space="preserve">
<polygon fill="#804998" points="41.681,36.313 39.199,46 30.594,40.905 "/>
<path fill="#804998" d="M24.025,25.996c0,0-0.475,0.862-1,1c6.594,0,10.902,10.95,13.469,17.34l3.331-0.962
	C37.202,36.435,34.025,25.996,24.025,25.996z"/>
<polygon fill="#804998" points="41.681,13.679 39.199,3.992 30.594,9.087 "/>
<path fill="#804998" d="M24.025,23.996c0,0-0.475-0.862-1-1c6.594,0,10.902-10.95,13.469-17.34l3.331,0.962
	C37.202,13.557,34.025,23.996,24.025,23.996z"/>
<polygon fill="#804998" points="42.043,18.996 50.043,24.996 42.043,30.996 "/>
<rect x="31.1" y="12.896" transform="matrix(-1.836970e-16 1 -1 -1.836970e-16 58.1 -8.104)" fill="#804998" width="4.004" height="24.204"/>
<path fill="#7FBA00" d="M4.754,38H19c2.625,0,4.754-2.128,4.754-4.754V16.75c0-2.625-2.128-4.754-4.754-4.754H4.754
	C2.128,11.996,0,14.124,0,16.75v16.497C0,35.872,2.128,38,4.754,38z"/>
<path opacity="0.2" fill="#FFFFFF" d="M4.754,38L19,11.996H4.754C2.128,11.996,0,14.124,0,16.75v16.497C0,35.872,2.128,38,4.754,38z
	"/>
<rect x="14" y="21.996" fill="#FFFFFF" width="6" height="6"/>
<rect x="4" y="16" fill="#FFFFFF" width="6" height="6"/>
<rect x="4" y="28" fill="#FFFFFF" width="6" height="6"/>
</svg>
