<?xml version="1.0" encoding="utf-8"?>
<!-- Generator: Adobe Illustrator 21.0.0, SVG Export Plug-In . SVG Version: 6.00 Build 0)  -->
<svg version="1.1"
	 id="Layer_1" xmlns:ev="http://www.w3.org/2001/xml-events" xmlns:v="http://schemas.microsoft.com/visio/2003/SVGExtensions/"
	 xmlns="http://www.w3.org/2000/svg" xmlns:xlink="http://www.w3.org/1999/xlink" x="0px" y="0px" width="39px" height="30.6px"
	 viewBox="0 0 39 30.6" enable-background="new 0 0 39 30.6" xml:space="preserve">
<v:documentProperties  v:langID="1033" v:viewMarkup="false">
	<v:userDefs>
		<v:ud  v:nameU="visTLShowProps" v:prompt="" v:val="VT0(0):26"></v:ud>
	</v:userDefs>
</v:documentProperties>
<g>
	<title>Page-1</title>
	
		<v:pageProperties  v:drawingScale="1" v:drawingUnits="19" v:pageScale="1" v:shadowOffsetX="2.83465" v:shadowOffsetY="-2.83465" v:shadowType="1">
		</v:pageProperties>
	<g id="shape993-1" transform="translate(0.75,-0.75)">
		<title>Sheet.993</title>
		<path fill="#0078D7" d="M31.57,1.5l0.08,1.95c0.6,0,0.97,0.15,1.27,0.45c0.23,0.3,0.38,0.83,0.38,1.5v7.43
			c0,1.72,0.6,2.77,1.65,3.22c-1.13,0.45-1.65,1.5-1.65,3.23v7.5c0,1.27-0.6,1.87-1.73,1.87v1.95c1.58,0,2.71-0.3,3.38-0.9
			c0.67-0.6,0.97-1.65,0.97-3.07v-7.58c0-1.35,0.53-2.02,1.58-2.02v-1.95c-1.05,0-1.58-0.68-1.58-1.95v-7.8c0-1.43-0.3-2.4-0.97-3
			C34.28,1.8,33.15,1.5,31.57,1.5z M22.8,25.13c0,0.82,0.68,1.5,1.5,1.5h3.45c0.83,0,1.5-0.68,1.5-1.5v-3.45
			c0-0.83-0.67-1.5-1.5-1.5h-0.82V18.9c0-1.5-1.2-2.85-2.93-3.37l-3.15-0.68c-0.68-0.21-1.17-0.56-1.41-0.98
			c0.04-0.2,0.06-0.39,0.06-0.59v-0.15v-2.18h0.98c0.82,0,1.5-0.67,1.5-1.5V5.48c0-0.83-0.68-1.5-1.5-1.5H16.5
			c-0.82,0-1.5,0.67-1.5,1.5v3.97c0,0.83,0.68,1.5,1.5,1.5h0.9v2.18v0.15c0,0.2,0.02,0.39,0.06,0.59c-0.24,0.42-0.73,0.77-1.41,0.98
			l-2.55,0.53c-1.72,0.52-2.92,1.87-2.92,3.37v1.28H9.75c-0.82,0-1.5,0.67-1.5,1.5v3.45c0,0.82,0.68,1.5,1.5,1.5h3.45
			c0.83,0,1.5-0.68,1.5-1.5v-3.45c0-0.83-0.67-1.5-1.5-1.5h-0.75v-1.28c0-0.67,0.6-1.27,1.58-1.57l2.55-0.6
			c0.73-0.2,1.37-0.55,1.86-1.01c0.5,0.47,1.14,0.85,1.88,1.08l3.16,0.68c0.97,0.3,1.57,0.9,1.57,1.57v1.28H24.3
			c-0.82,0-1.5,0.67-1.5,1.5V25.13z M19.88,6.08v2.77H17.1V6.08H19.88z M5.92,30.6l-0.07-1.95c-0.6,0-0.98-0.15-1.28-0.45
			c-0.22-0.3-0.37-0.82-0.37-1.5v-7.42c0-1.73-0.6-2.78-1.65-3.23c1.12-0.45,1.65-1.5,1.65-3.22v-7.5c0-1.28,0.6-1.88,1.72-1.88V1.5
			c-1.57,0-2.7,0.23-3.37,0.83S1.58,3.98,1.58,5.4v7.65c0,1.35-0.53,2.03-1.58,2.03v1.95c1.05,0,1.58,0.67,1.58,1.95v7.8
			c0,1.42,0.3,2.4,0.97,3C3.22,30.3,4.35,30.6,5.92,30.6z"/>
	</g>
</g>
</svg>
