<?xml version="1.0" encoding="utf-8"?>
<!-- Generator: Adobe Illustrator 21.0.0, SVG Export Plug-In . SVG Version: 6.00 Build 0)  -->
<svg version="1.1" id="Layer_1" xmlns="http://www.w3.org/2000/svg" xmlns:xlink="http://www.w3.org/1999/xlink" x="0px" y="0px"
	 width="50px" height="50px" viewBox="0 0 50 50" enable-background="new 0 0 50 50" xml:space="preserve">
<path fill="#0072C6" d="M18,18v11l7-3V14L18,18z M24,16.792v1v6.637l-1.5,0.679v-6.503l-2,1.083v6.348L19,26.643V20.5v-1l3.5-1.896
	v-0.009L24,16.792L24,16.792z"/>
<path fill="#0072C6" d="M25,14v12l22,4.75V22L25,14z M45,24v5l-1.455-0.401v-5.2L41,22.6V28l-1.455-0.401v-5.6L37,21.2V27
	l-1.455-0.401v-6L33,19.8V26l-1.455-0.401v-6.4l-2.799-0.893l0.005,6.637L27,24.5v-6.8v-1l4,1.4l0,0l2,0.7l2,0.7l1,0.35l3.857,1.35
	L41,21.6l2,0.7l2,0.7V24z"/>
<path fill="#0072C6" d="M25,28v16l22-5v-6.75L25,28z M45,37.909l-1.454,0.244v-4.341L41,33.477v5.251l-1.454,0.244V33.29L37,32.953
	v6.592l-1.454,0.244v-7.024L33,32.43v7.934l-1.454,0.244v-8.365L28.75,31.92l-0.005,9.369L27,41.591V30.52l18,2.73V37.909z"/>
<path fill="#0072C6" d="M16,16.839l8.813-5.036l17.124,6.227C41.446,12.972,37.185,9,32,9c-1.209,0-2.389,0.217-3.519,0.646
	C26.213,6.722,22.728,5,19,5C12.383,5,7,10.383,7,17c0,0.116,0.002,0.231,0.007,0.345C3.902,19.13,2,22.388,2,26
	c0,5.514,4.486,10,10,10h4V16.839z"/>
<path fill="#0072C6" d="M18,30.75V40l7,4V28L18,30.75z M24,31.829V41.5l-1.5-0.75v-8.427l-2,0.658v6.766L19,39v-5.525v-1l3.5-1.152
	l1.5-0.494V31.829z"/>
</svg>
