<?xml version="1.0" encoding="utf-8"?>
<!-- Generator: Adobe Illustrator 21.0.0, SVG Export Plug-In . SVG Version: 6.00 Build 0)  -->
<svg version="1.1" id="Layer_1" xmlns="http://www.w3.org/2000/svg" xmlns:xlink="http://www.w3.org/1999/xlink" x="0px" y="0px"
	 width="50px" height="52px" viewBox="0 0 50 52" enable-background="new 0 0 50 52" xml:space="preserve">
<polygon fill="#0072C6" points="7,14 7,8 43,8 43,14 48,14 48,3 2,3 2,14 "/>
<polygon fill="#0072C6" points="43,38 43,44 7,44 7,38 2,38 2,49 48,49 48,38 "/>
<path fill="#0072C6" d="M23.284,26.916c0.469,0.433,1.079,0.671,1.716,0.671s1.248-0.238,1.716-0.671L38,16.5V16H12v0.5
	L23.284,26.916z"/>
<path fill="#0072C6" d="M38,19l-9.927,9.164c-1.735,1.602-4.41,1.602-6.145,0L12,19v17h26V19z"/>
</svg>
