<?xml version="1.0" encoding="utf-8"?>
<!-- Generator: Adobe Illustrator 21.1.0, SVG Export Plug-In . SVG Version: 6.00 Build 0)  -->
<svg version="1.1" id="Layer_1" xmlns="http://www.w3.org/2000/svg" xmlns:xlink="http://www.w3.org/1999/xlink" x="0px" y="0px"
	 width="24px" height="24px" viewBox="0 0 24 24" enable-background="new 0 0 24 24" xml:space="preserve">
<path fill="#59B4D9" d="M12,8H5v1h1v3.969l-5.28,9.255C0.144,23.184,0.624,24,1.728,24h13.488c1.152,0,1.584-0.768,1.008-1.776
	L11,12.969V9h1V8L12,8z"/>
<path fill="#0072C6" d="M12.127,17H4.851l-3.263,5.72c-0.072,0.12-0.098,0.201-0.108,0.246C1.523,22.981,1.601,23,1.728,23h13.488
	c0.114,0,0.196-0.012,0.25-0.025c-0.015-0.058-0.047-0.143-0.11-0.254L12.127,17z"/>
<path opacity="0.25" fill="#ECF0F1" enable-background="new    " d="M5,9h1v3.969l-5.28,9.255C0.144,23.184,0.624,24,1.728,24h1.454
	L7,17l2-3.667V8H5V9z"/>
<path opacity="0.25" fill="#ECF0F1" enable-background="new    " d="M3.727,23L7,17H4.851l-3.263,5.72
	c-0.072,0.12-0.098,0.201-0.108,0.246C1.523,22.981,1.601,23,1.728,23H3.727z"/>
<path fill="#A0A1A2" d="M11,6H9V4h2V6z M11,3H9V1h2V3z M14,6h-2V4h2V6z M14,3h-2V1h2V3z M17,12h-2v-2h2V12z M17,9h-2V7h2V9z M17,6
	h-2V4h2V6z M17,3h-2V1h2V3z M20,12h-2v-2h2V12z M20,9h-2V7h2V9z M20,6h-2V4h2V6z M20,3h-2V1h2V3z M21,13h2h1V0H8v7h1h2h1h1h1v2h-1v1
	h1v2h-2v0.707L12.166,13H14H21z M23,12h-2v-2h2V12z M23,9h-2V7h2V9z M23,6h-2V4h2V6z M23,3h-2V1h2V3z"/>
</svg>
