<?xml version="1.0" encoding="utf-8"?>
<!-- Generator: Adobe Illustrator 21.0.0, SVG Export Plug-In . SVG Version: 6.00 Build 0)  -->
<svg version="1.1" id="Layer_2" xmlns="http://www.w3.org/2000/svg" xmlns:xlink="http://www.w3.org/1999/xlink" x="0px" y="0px"
	 width="50px" height="50px" viewBox="0 0 50 50" enable-background="new 0 0 50 50" xml:space="preserve">
<polygon fill="#7A7A7A" points="10,4 0,4 0,14 3,14 3,7 10,7 "/>
<polygon fill="#7A7A7A" points="0,36 0,46 10,46 10,43 3,43 3,36 "/>
<polygon fill="#7A7A7A" points="40,46 50,46 50,36 47,36 47,43 40,43 "/>
<polygon fill="#7A7A7A" points="50,14 50,4 40,4 40,7 47,7 47,14 "/>
<path fill="#7FBA00" d="M45,34.757c0,4-8.954,7.243-19.998,7.243S5.004,38.758,5.004,34.757v-3.904H45V34.757z"/>
<path fill="#B8D432" d="M45,30.854c0,4-8.954,7.243-19.998,7.243S5.004,34.854,5.004,30.854c0-4,8.954-7.243,19.998-7.243
	S45,26.854,45,30.854"/>
<path fill="#7FBA00" d="M31.412,30.437c0,1.064-2.87,1.925-6.411,1.925s-6.411-0.862-6.411-1.925c0-1.064,2.871-1.925,6.411-1.925
	S31.412,29.374,31.412,30.437"/>
<path opacity="0.25" fill="#00188F" d="M31.412,30.437c0,1.064-2.87,1.925-6.411,1.925s-6.411-0.862-6.411-1.925
	c0-1.064,2.871-1.925,6.411-1.925S31.412,29.374,31.412,30.437"/>
<path opacity="0.25" fill="#FFFFFF" enable-background="new    " d="M39.457,25.892c-2.801-1.061-6.483-1.815-10.622-2.106
	l-2.595,4.803c1.277,0.075,2.418,0.263,3.301,0.53L39.457,25.892z"/>
<path opacity="0.25" fill="#FFFFFF" enable-background="new    " d="M9.725,35.565c2.881,1.234,6.878,2.114,11.429,2.436
	l3.034-5.615c-1.263-0.048-2.411-0.206-3.334-0.442L9.725,35.565z"/>
<path fill="#0072C6" d="M45,19.146c0,4-8.954,7.243-19.998,7.243S5.004,23.146,5.004,19.146v-3.904H45V19.146z"/>
<path fill="#59B4D9" d="M45,15.243c0,4-8.954,7.243-19.998,7.243S5.004,19.242,5.004,15.243S13.957,8,25.002,8S45,11.242,45,15.243"
	/>
<path fill="#0072C6" d="M31.412,14.826c0,1.064-2.87,1.925-6.411,1.925s-6.411-0.862-6.411-1.925s2.871-1.925,6.411-1.925
	S31.412,13.762,31.412,14.826"/>
<path opacity="0.25" fill="#FFFFFF" enable-background="new    " d="M39.457,10.241c-2.801-1.062-6.483-1.815-10.622-2.106
	l-2.595,4.803c1.277,0.075,2.418,0.263,3.301,0.53L39.457,10.241z"/>
<path opacity="0.25" fill="#FFFFFF" enable-background="new    " d="M9.725,19.914c2.881,1.234,6.878,2.114,11.429,2.436
	l3.034-5.615c-1.263-0.048-2.411-0.206-3.334-0.442L9.725,19.914z"/>
</svg>
