<?xml version="1.0" encoding="utf-8"?>
<!-- Generator: Adobe Illustrator 21.1.0, SVG Export Plug-In . SVG Version: 6.00 Build 0)  -->
<!DOCTYPE svg PUBLIC "-//W3C//DTD SVG 1.1//EN" "http://www.w3.org/Graphics/SVG/1.1/DTD/svg11.dtd">
<svg version="1.1" id="Layer_1" xmlns="http://www.w3.org/2000/svg" xmlns:xlink="http://www.w3.org/1999/xlink" x="0px" y="0px"
	 width="24px" height="24px" viewBox="0 0 24 24" enable-background="new 0 0 24 24" xml:space="preserve">
<path fill="#59B4D9" d="M17.625,1c-0.648,0-1.227,0.074-1.734,0.223c-0.508,0.148-0.979,0.354-1.412,0.615
	c-0.434,0.262-0.848,0.576-1.242,0.943C12.842,3.148,12.43,3.551,12,3.988c-0.43-0.438-0.842-0.84-1.236-1.207
	C10.369,2.414,9.955,2.1,9.521,1.838C9.088,1.576,8.617,1.371,8.109,1.223C7.602,1.074,7.023,1,6.375,1
	C5.492,1,4.664,1.168,3.891,1.504C3.117,1.84,2.441,2.295,1.863,2.869C1.285,3.443,0.83,4.119,0.498,4.896
	C0.166,5.674,0,6.5,0,7.375c0,0.852,0.162,1.668,0.486,2.449s0.783,1.469,1.377,2.062L12,22.012l10.137-10.125
	c0.594-0.594,1.053-1.281,1.377-2.062S24,8.227,24,7.375c0-0.875-0.166-1.701-0.498-2.479c-0.332-0.777-0.787-1.453-1.365-2.027
	c-0.578-0.574-1.254-1.029-2.027-1.365C19.336,1.168,18.508,1,17.625,1L17.625,1z"/>
<path opacity="0.2" fill="#FFFFFF" d="M12,3.988c-0.43-0.438-0.842-0.84-1.236-1.207C10.369,2.414,9.955,2.1,9.521,1.838
	C9.088,1.576,8.617,1.371,8.109,1.223C7.602,1.074,7.023,1,6.375,1C5.492,1,4.664,1.168,3.891,1.504
	C3.117,1.84,2.441,2.295,1.863,2.869C1.285,3.443,0.83,4.119,0.498,4.896C0.166,5.674,0,6.5,0,7.375
	c0,0.852,0.162,1.668,0.486,2.449s0.783,1.469,1.377,2.062L12,22.012V3.988z"/>
<polygon fill="#FFFFFF" points="11.816,16.677 9.873,9.874 8.309,13 3,13 2,12 7.691,12 10.127,7.126 12.184,14.323 13.732,12 
	17,12 17,13 14.268,13 "/>
</svg>
