<?xml version="1.0" encoding="utf-8"?>
<!-- Generator: Adobe Illustrator 21.0.0, SVG Export Plug-In . SVG Version: 6.00 Build 0)  -->
<svg version="1.1" id="Layer_1" xmlns="http://www.w3.org/2000/svg" xmlns:xlink="http://www.w3.org/1999/xlink" x="0px" y="0px"
	 width="74px" height="74px" viewBox="0 0 74 74" enable-background="new 0 0 74 74" xml:space="preserve">
<path fill="#0072C6" d="M23.5,30.5c0,1.105-2.462,2-5.5,2s-5.5-0.895-5.5-2s2.463-2,5.5-2S23.5,29.395,23.5,30.5"/>
<path fill="#0072C6" d="M61.5,30.5c0,1.105-2.462,2-5.5,2s-5.5-0.895-5.5-2s2.463-2,5.5-2S61.5,29.395,61.5,30.5"/>
<path fill="#0072C6" d="M42.5,10.5c0,1.105-2.462,2-5.5,2s-5.5-0.895-5.5-2s2.463-2,5.5-2S42.5,9.395,42.5,10.5"/>
<path fill="#0072C6" d="M71.999,32.175L41.828,2.001C40.539,0.71,38.823,0,37.001,0c-1.823,0-3.537,0.71-4.826,2.001L1.999,32.175
	C0.728,33.444,0,35.203,0,36.999c0,1.798,0.728,3.555,1.999,4.826l30.176,30.174C33.461,73.29,35.178,74,37.001,74
	c1.822,0,3.539-0.71,4.826-2.001l30.17-30.171C73.291,40.539,74,38.824,74,36.999S73.291,33.459,71.999,32.175z M25.5,30.5v14.73
	l0,0c0,1.531-3.358,2.77-7.5,2.77c-0.005,0-0.009,0-0.014,0h-0.089v-0.002c-4.094-0.021-7.397-1.251-7.397-2.768V30.5
	c0-1.933,3.358-3.5,7.5-3.5S25.5,28.567,25.5,30.5L25.5,30.5z M44.5,50.5v14.73l0,0c0,1.531-3.358,2.77-7.5,2.77
	c-0.005,0-0.009,0-0.014,0h-0.089v-0.002c-4.094-0.021-7.397-1.251-7.397-2.768V50.5c0-1.933,3.358-3.5,7.5-3.5
	S44.5,48.567,44.5,50.5L44.5,50.5z M44.5,10.5v14.73l0,0c0,1.531-3.358,2.77-7.5,2.77c-0.005,0-0.009,0-0.014,0h-0.089v-0.002
	c-4.094-0.021-7.397-1.251-7.397-2.768V10.5C29.5,8.567,32.858,7,37,7S44.5,8.567,44.5,10.5L44.5,10.5z M63.5,30.5v14.73l0,0
	c0,1.531-3.358,2.77-7.5,2.77c-0.005,0-0.009,0-0.014,0h-0.089v-0.002c-4.094-0.021-7.397-1.251-7.397-2.768V30.5
	c0-1.933,3.358-3.5,7.5-3.5S63.5,28.567,63.5,30.5L63.5,30.5z"/>
<path fill="#0072C6" d="M42.5,50.5c0,1.105-2.462,2-5.5,2s-5.5-0.895-5.5-2s2.463-2,5.5-2S42.5,49.395,42.5,50.5"/>
</svg>
