<?xml version="1.0" encoding="utf-8"?>
<!-- Generator: Adobe Illustrator 21.0.0, SVG Export Plug-In . SVG Version: 6.00 Build 0)  -->
<svg version="1.1" id="Layer_1" xmlns="http://www.w3.org/2000/svg" xmlns:xlink="http://www.w3.org/1999/xlink" x="0px" y="0px"
	 width="50px" height="50px" viewBox="0 0 50 50" enable-background="new 0 0 50 50" xml:space="preserve">
<path fill="#59B4D9" d="M43.347,13.981c0.372-1.027,0.577-2.12,0.577-3.257c0-5.868-5.351-10.624-11.952-10.624
	c-5.153,0-9.532,2.904-11.21,6.968c-1.518-1.553-3.757-2.545-6.255-2.545c-4.579,0-8.309,3.329-8.309,7.44
	c0,0.72,0.116,1.39,0.319,2.034C2.778,15.231,0.1,18.455,0.1,22.23C0.1,27.067,4.48,31,9.892,31h30.213
	c5.426,0,9.795-3.927,9.795-8.77C49.913,18.41,47.173,15.173,43.347,13.981z"/>
<path opacity="0.2" fill="#FFFFFF" enable-background="new    " d="M8.449,19.96c-0.232-0.735-0.364-1.5-0.364-2.321
	c0-4.694,4.258-8.494,9.485-8.494c2.851,0,5.407,1.133,7.14,2.906c1.916-4.638,6.914-7.954,12.797-7.954
	c1.516,0,2.969,0.229,4.332,0.635C39.686,1.936,36.072,0.1,31.973,0.1c-5.153,0-9.532,2.904-11.21,6.968
	c-1.518-1.553-3.758-2.545-6.255-2.545c-4.579,0-8.309,3.329-8.309,7.44c0,0.72,0.116,1.39,0.319,2.034
	C2.778,15.231,0.1,18.455,0.1,22.23c0,1.656,0.523,3.2,1.416,4.523C2.464,23.611,5.074,21.075,8.449,19.96z"/>
<path opacity="0.8" fill="#FFFFFF" enable-background="new    " d="M37.999,15.5L16,15v-2.562c0-0.649-0.769-0.992-1.252-0.557
	L8.005,17.5l6.743,5.619C15.231,23.552,16,23.21,16,22.561V20h5v27.122C21,48.159,21.851,49,22.901,49h15.098
	c1.05,0,1.901-0.841,1.901-1.878V17.378C39.9,16.341,39.049,15.5,37.999,15.5z M21,16h0.23C21.088,16.263,21,16.559,21,16.878V16z"
	/>
<path fill="#7A7A7A" d="M40,48.122C40,49.159,39.149,50,38.099,50H22.901C21.851,50,21,49.159,21,48.122V17.878
	C21,16.841,21.851,16,22.901,16h15.198C39.149,16,40,16.841,40,17.878V48.122z"/>
<path fill="#1E1E1E" d="M23.05,44.393c0-1.321,1.075-2.393,2.401-2.393h9.997c1.326,0,2.401,1.072,2.401,2.393l0,0
	c0,1.321-1.075,2.393-2.401,2.393h-9.997C24.125,46.786,23.05,45.715,23.05,44.393L23.05,44.393z"/>
<circle fill="#B8D432" cx="25.682" cy="44.393" r="1.607"/>
<path fill="#1E1E1E" d="M23.05,37.393c0-1.321,1.075-2.393,2.401-2.393h9.997c1.326,0,2.401,1.072,2.401,2.393l0,0
	c0,1.321-1.075,2.393-2.401,2.393h-9.997C24.125,39.786,23.05,38.715,23.05,37.393L23.05,37.393z"/>
<circle fill="#B8D432" cx="25.682" cy="37.393" r="1.607"/>
<path fill="#1E1E1E" d="M23.05,21.5c0-1.322,1.075-2.393,2.401-2.393h9.997c1.326,0,2.401,1.072,2.401,2.393l0,0
	c0,1.322-1.075,2.393-2.401,2.393h-9.997C24.125,23.894,23.05,22.822,23.05,21.5L23.05,21.5z"/>
<circle fill="#B8D432" cx="25.682" cy="21.5" r="1.607"/>
<path opacity="0.9" fill="#FFFFFF" d="M29,32h-8.05v-4H20l1-1h8v-2.561c0-0.649,0.769-0.992,1.252-0.557l6.743,5.619l-6.743,5.619
	C29.769,35.553,29,35.21,29,34.561V32z"/>
<polygon fill="#59B4D9" points="18.95,31 29.95,31 29.95,34 35.45,29.5 29.95,25 29.95,28 18.95,28 "/>
<polygon fill="#7A7A7A" points="26,16 15,16 15,13 9.5,17.5 15,22 15,19 26,19 "/>
</svg>
