<?xml version="1.0" encoding="UTF-8" standalone="no"?>
<!DOCTYPE svg PUBLIC "-//W3C//DTD SVG 1.1//EN" "http://www.w3.org/Graphics/SVG/1.1/DTD/svg11.dtd">
<!-- Generated by Microsoft Visio, SVG Export webhooks.svg Page-1 -->
<svg xmlns="http://www.w3.org/2000/svg" xmlns:xlink="http://www.w3.org/1999/xlink" xmlns:ev="http://www.w3.org/2001/xml-events"
		xmlns:v="http://schemas.microsoft.com/visio/2003/SVGExtensions/" width="2.74842in" height="2.59763in"
		viewBox="0 0 197.886 187.03" xml:space="preserve" color-interpolation-filters="sRGB" class="st2">
	<v:documentProperties v:langID="1033" v:viewMarkup="false">
		<v:userDefs>
			<v:ud v:nameU="visTLShowProps" v:prompt="" v:val="VT0(0):26"/>
		</v:userDefs>
	</v:documentProperties>

	<style type="text/css">
	<![CDATA[
		.st1 {fill:#f2f2f2;stroke:none;stroke-linecap:butt;stroke-width:0.75}
		.st2 {fill:none;fill-rule:evenodd;font-size:12px;overflow:visible;stroke-linecap:square;stroke-miterlimit:3}
	]]>
	</style>

	<g v:mID="0" v:index="1" v:groupContext="foregroundPage">
		<title>Page-1</title>
		<v:pageProperties v:drawingScale="1" v:pageScale="1" v:drawingUnits="19" v:shadowOffsetX="2.83465"
				v:shadowOffsetY="-2.83465" v:shadowType="1"/>
		<g id="group1176-1" v:mID="1176" v:groupContext="group">
			<title>Sheet.1176</title>
			<g id="group1177-2" v:mID="1177" v:groupContext="group">
				<title>Sheet.1177</title>
				<g id="shape1178-3" v:mID="1178" v:groupContext="shape" transform="translate(27.0358,-29.8441)">
					<title>Sheet.1178</title>
					<path d="M64.14 108.84 C56.18 122.21 48.56 135.17 40.78 148.03 C38.78 151.33 37.79 154.01 39.39 158.21 C43.79
								 169.8 37.57 181.08 25.89 184.14 C14.86 187.03 4.12 179.79 1.94 167.98 C0 157.54 8.11 147.3 19.62
								 145.67 C20.59 145.53 21.57 145.51 23.19 145.39 C28.84 135.93 34.62 126.24 40.71 116.02 C29.69 105.06
								 23.14 92.25 24.59 76.38 C25.61 65.16 30.02 55.47 38.09 47.52 C53.53 32.31 77.09 29.84 95.27 41.52
								 C112.74 52.74 120.73 74.59 113.92 93.3 C108.77 91.9 103.6 90.5 97.91 88.95 C100.05 78.56 98.47 69.22
								 91.45 61.22 C86.82 55.94 80.87 53.17 74.11 52.15 C60.56 50.1 47.25 58.81 43.3 72.11 C38.82 87.21
								 45.6 99.54 64.14 108.84 Z" class="st1"/>
				</g>
				<g id="shape1179-5" v:mID="1179" v:groupContext="shape" transform="translate(77.9878,3.12639E-13)">
					<title>Sheet.1179</title>
					<path d="M35.91 63.17 C41.52 73.06 47.21 83.1 52.85 93.05 C81.37 84.23 102.87 100.01 110.58 116.91 C119.9 137.33
								 113.53 161.51 95.23 174.1 C76.45 187.03 52.7 184.82 36.06 168.21 C40.3 164.66 44.57 161.1 49.12
								 157.29 C65.55 167.93 79.93 167.43 90.6 154.83 C99.7 144.07 99.5 128.04 90.14 117.51 C79.33 105.37
								 64.86 105 47.36 116.66 C40.1 103.78 32.72 91.01 25.69 78.04 C23.32 73.67 20.7 71.13 15.36 70.21
								 C6.44 68.66 0.69 61 0.34 52.42 C0 43.93 5 36.26 12.82 33.27 C20.56 30.31 29.64 32.7 34.85 39.28
								 C39.1 44.66 40.46 50.71 38.22 57.34 C37.59 59.19 36.79 60.98 35.91 63.17 Z" class="st1"/>
				</g>
				<g id="shape1180-7" v:mID="1180" v:groupContext="shape" transform="translate(0,-4.36808)">
					<title>Sheet.1180</title>
					<path d="M127.3 148.39 L92.97 148.39 C89.68 161.92 82.58 172.85 70.33 179.8 C60.81 185.2 50.55 187.03 39.63 185.27
								 C19.53 182.02 3.09 163.92 1.64 143.54 C0 120.46 15.87 99.93 37.02 95.32 C38.48 100.63 39.96 105.98
								 41.42 111.27 C22.01 121.17 15.29 133.65 20.73 149.25 C25.51 162.98 39.09 170.5 53.84 167.59 C68.9
								 164.62 76.49 152.1 75.56 132.02 C89.84 132.02 104.13 131.87 118.41 132.09 C123.98 132.18 128.29
								 131.6 132.49 126.68 C139.4 118.6 152.13 119.33 159.58 126.96 C167.19 134.77 166.82 147.33 158.77
								 154.81 C151 162.03 138.72 161.64 131.45 153.87 C129.96 152.26 128.78 150.36 127.3 148.39 Z"
							class="st1"/>
				</g>
			</g>
		</g>
	</g>
</svg>
