<?xml version="1.0" encoding="UTF-8" standalone="no"?>
<!DOCTYPE svg PUBLIC "-//W3C//DTD SVG 1.1//EN" "http://www.w3.org/Graphics/SVG/1.1/DTD/svg11.dtd">
<!-- Generated by Microsoft Visio, SVG Export Azure Bot.svg Page-1 -->
<svg xmlns="http://www.w3.org/2000/svg" xmlns:xlink="http://www.w3.org/1999/xlink" xmlns:ev="http://www.w3.org/2001/xml-events"
		xmlns:v="http://schemas.microsoft.com/visio/2003/SVGExtensions/" width="0.449946in" height="0.449946in"
		viewBox="0 0 32.3961 32.3961" xml:space="preserve" color-interpolation-filters="sRGB" class="st2">
	<v:documentProperties v:langID="1033" v:viewMarkup="false">
		<v:userDefs>
			<v:ud v:nameU="visTLShowProps" v:prompt="" v:val="VT0(0):26"/>
		</v:userDefs>
	</v:documentProperties>

	<style type="text/css">
	<![CDATA[
		.st1 {fill:#0078d7;stroke:none;stroke-linecap:butt;stroke-width:0.75}
		.st2 {fill:none;fill-rule:evenodd;font-size:12px;overflow:visible;stroke-linecap:square;stroke-miterlimit:3}
	]]>
	</style>

	<g v:mID="0" v:index="1" v:groupContext="foregroundPage">
		<title>Page-1</title>
		<v:pageProperties v:drawingScale="1" v:pageScale="1" v:drawingUnits="19" v:shadowOffsetX="9" v:shadowOffsetY="-9"/>
		<g id="shape104-1" v:mID="104" v:groupContext="shape" transform="translate(0.75,-0.75)">
			<title>Sheet.104</title>
			<path d="M19.31 16.95 A1.44825 1.44825 -180 1 0 16.41 16.95 A1.44825 1.44825 -180 1 0 19.31 16.95 ZM23.78 20.5 L23.78
						 9.58 a0.965503 0.965503 -180 0 0 -0.965503 -0.965503 L11.89 8.61 L11.89 10.54 L21.85 10.54 L21.85 20.5 L23.78
						 20.5 ZM14.48 16.95 A1.44825 1.44825 -180 1 0 11.59 16.95 A1.44825 1.44825 -180 1 0 14.48 16.95 ZM19 25.28
						 L19 23.35 L9.04 23.35 L9.04 13.39 L7.11 13.39 L7.11 24.32 a0.965503 0.965503 -180 0 0 0.965503 0.965503
						 L19 25.28 ZM15.45 1.5 A15.448 15.448 -180 1 0 30.9 16.95 A15.448 15.448 -180 0 0 15.45 1.5 ZM15.45 3.43
						 A13.517 13.517 0 1 1 1.93 16.95 A13.5327 13.5327 0 0 1 15.45 3.43 Z" class="st1"/>
		</g>
	</g>
</svg>
