<?xml version="1.0" encoding="utf-8"?>
<!-- Generator: Adobe Illustrator 19.2.1, SVG Export Plug-In . SVG Version: 6.00 Build 0)  -->
<svg version="1.1" id="Layer_1" xmlns="http://www.w3.org/2000/svg" xmlns:xlink="http://www.w3.org/1999/xlink" x="0px" y="0px"
	 width="50px" height="50px" viewBox="0 0 50 50" enable-background="new 0 0 50 50" xml:space="preserve">
<path fill="#A0A1A2" d="M49.662,25.717c0.499-0.499,0.399-1.298,0-1.797l-2.396-2.396L36.482,11.04
	c-0.499-0.499-1.198-0.499-1.697,0l0,0c-0.499,0.499-0.599,1.298,0,1.797L46.068,23.92c0.499,0.499,0.499,1.298,0,1.797
	L34.585,37.199c-0.499,0.499-0.499,1.298,0,1.797l0,0c0.499,0.499,1.298,0.399,1.697,0l10.684-10.584c0,0,0,0,0.1-0.1L49.662,25.717
	z"/>
<path fill="#A0A1A2" d="M0.338,25.717c-0.499-0.499-0.399-1.298,0-1.797l2.396-2.396L13.518,11.04c0.499-0.499,1.198-0.499,1.697,0
	l0,0c0.499,0.499,0.599,1.298,0,1.797L4.132,23.92c-0.499,0.499-0.499,1.298,0,1.797l11.283,11.482c0.499,0.499,0.499,1.298,0,1.797
	l0,0c-0.499,0.499-1.298,0.399-1.697,0L2.834,28.513c0,0,0,0-0.1-0.1L0.338,25.717z"/>
<polygon fill="#FEE087" points="18.68,34.686 23.057,29.994 23.482,36.396 20.099,40.766 18.54,40.211 "/>
<polygon fill="#1E1E1E" points="18.541,40.211 20.1,40.766 18.678,42.289 "/>
<polygon fill="#FF8C00" points="27.978,15.835 27.978,15.835 27.139,15.536 25.682,15.018 18.668,34.72 21.391,34.337 
	21.413,34.275 21.413,34.275 21.391,34.336 23.47,36.429 30.484,16.727 27.978,15.835 "/>
<polygon opacity="0.3" fill="#FFFFFF" points="18.668,34.72 21.391,34.337 27.978,15.835 25.682,15.018 "/>
<rect x="26" y="12.019" transform="matrix(0.3354 -0.9421 0.9421 0.3354 5.25 36.5762)" fill="#E5E5E5" width="5.097" height="5.097"/>
<rect x="28.336" y="11.72" transform="matrix(0.3354 -0.9421 0.9421 0.3354 5.6025 36.4778)" fill="#7FBA00" width="0.637" height="5.097"/>
<rect x="28.132" y="7.818" transform="matrix(0.3354 -0.9421 0.9421 0.3354 10.2015 35.1932)" fill="#C62D31" width="3.823" height="5.097"/>
<rect x="28.132" y="7.818" transform="matrix(0.3354 -0.9421 0.9421 0.3354 10.2015 35.1932)" opacity="0.3" fill="#FFFFFF" width="3.823" height="5.097"/>
</svg>
