<?xml version="1.0" encoding="utf-8"?>
<!-- Generator: Adobe Illustrator 20.0.0, SVG Export Plug-In . SVG Version: 6.00 Build 0)  -->
<svg version="1.1" id="Layer_1" xmlns="http://www.w3.org/2000/svg" xmlns:xlink="http://www.w3.org/1999/xlink" x="0px" y="0px"
	 viewBox="0 0 42.3 29.3" style="enable-background:new 0 0 42.3 29.3;" xml:space="preserve">
<style type="text/css">
	.st0{fill:#59B4D9;}
</style>
<path class="st0" d="M5.9,12.6c0-0.4-0.1-0.7-0.1-1.1C5.9,5.7,10.6,1,16.5,1c3.5,0,6.7,1.7,8.7,4.4c1.3-0.8,2.7-1.2,4.3-1.2
	c4.4,0,8.1,3.6,8.1,8l0,0.6c3,1.5,4.6,4,4.6,7.2c0,5-4,8.8-9.2,8.8H10.2C5,28.8,1,24.9,1,20C1,16.7,2.8,14.1,5.9,12.6z"/>
</svg>
