<?xml version="1.0" encoding="utf-8"?>
<!-- Generator: Adobe Illustrator 19.2.1, SVG Export Plug-In . SVG Version: 6.00 Build 0)  -->
<svg version="1.1" id="Layer_1" xmlns="http://www.w3.org/2000/svg" xmlns:xlink="http://www.w3.org/1999/xlink" x="0px" y="0px"
	 width="32px" height="32px" viewBox="0 0 32 32" style="enable-background:new 0 0 32 32;" xml:space="preserve">
<style type="text/css">
	.st0{fill:#333940;fill-opacity:0;}
	.st1{fill:#3596C5;}
	.st2{fill:#5BAFD5;}
</style>
<rect x="0" y="0" class="st0" width="32" height="32"/>
<path class="st1" d="M18.9,6L18,4.4c-0.4-0.6-1-1-1.7-1H2c-1.1,0-2,0.9-2,2v1v0.1h19.2C19.1,6.3,19,6.2,18.9,6z"/>
<path class="st2" d="M30.8,7.5H0v1.5v17.6c0,1.1,0.9,2,2,2h28c1.1,0,2-0.9,2-2V9.3C32,8.5,31.5,7.8,30.8,7.5z M20.1,17l-5.7,8.1
	c0,0.1-0.1,0.1-0.2,0.1c0,0-0.1,0-0.1,0c-0.1-0.1-0.2-0.2-0.1-0.3l1.5-4.8h-3.3c-0.1,0-0.2-0.1-0.2-0.1s0-0.2,0-0.3l5.5-8
	c0-0.1,0.1-0.1,0.2-0.1c0,0,0.1,0,0.1,0c0.1,0.1,0.2,0.2,0.1,0.3l-1.4,4.7h3.4l0,0c0.1,0,0.3,0.1,0.3,0.3C20.1,16.9,20.1,17,20.1,17
	z"/>
</svg>
