<?xml version="1.0" encoding="utf-8"?>
<!-- Generator: Adobe Illustrator 19.2.1, SVG Export Plug-In . SVG Version: 6.00 Build 0)  -->
<svg version="1.1" id="Layer_1" xmlns="http://www.w3.org/2000/svg" xmlns:xlink="http://www.w3.org/1999/xlink" x="0px" y="0px"
	 width="50px" height="50px" viewBox="0 0 50 50" enable-background="new 0 0 50 50" xml:space="preserve">
<g>
	<path fill="#B8D432" d="M36.216,16.405c0,0.365-0.243,0.608-0.608,0.608h-4.739c-0.365,0-0.608-0.243-0.608-0.608v-3.524
		c0-0.365,0.243-0.608,0.608-0.608h4.739c0.365,0,0.608,0.243,0.608,0.608V16.405z"/>
	<path fill="#B8D432" d="M44.723,20.051c0,0.365-0.243,0.608-0.608,0.608h-4.739c-0.365,0-0.608-0.243-0.608-0.608v-3.524
		c0-0.365,0.243-0.608,0.608-0.608h4.739c0.365,0,0.608,0.243,0.608,0.608V20.051z"/>
	<path fill="#B8D432" d="M36.216,23.696c0,0.365-0.243,0.608-0.608,0.608h-4.739c-0.365,0-0.608-0.243-0.608-0.608v-3.524
		c0-0.365,0.243-0.608,0.608-0.608h4.739c0.365,0,0.608,0.243,0.608,0.608V23.696z"/>
	<path fill="#B8D432" d="M27.71,12.76c0,0.365-0.243,0.608-0.608,0.608h-4.861c-0.365,0-0.608-0.243-0.608-0.608V9.114
		c0-0.365,0.243-0.608,0.608-0.608h4.739c0.486,0,0.729,0.243,0.729,0.608V12.76z"/>
	<path fill="#0072C6" d="M48.976,0L48.976,0H45.33H18.474h-2.309H14.95c-0.365,0-0.608,0.243-0.608,0.608v7.291
		c0,0.365,0.243,0.608,0.608,0.608h3.646c0.365,0,0.608-0.243,0.608-0.608V4.861h25.519v3.038c0,0.365,0.243,0.608,0.729,0.608
		h3.524c0.365,0,0.608-0.243,0.608-0.608V4.253V0.608C49.583,0.243,49.34,0,48.976,0z"/>
	<path fill="#0072C6" d="M48.976,28.071h-3.524c-0.365,0-0.608,0.243-0.608,0.608v2.916H19.203v-3.038
		c0-0.365-0.243-0.608-0.729-0.608H14.95c-0.365,0-0.608,0.243-0.608,0.729v7.17c0,0.365,0.243,0.608,0.608,0.608h1.215h2.43h26.856
		h3.403h0.122c0.365,0,0.608-0.243,0.608-0.608v-7.17C49.583,28.314,49.34,28.071,48.976,28.071z"/>
	<path fill="#B8D432" d="M27.71,20.051c0,0.365-0.243,0.608-0.608,0.608h-4.861c-0.365,0-0.608-0.243-0.608-0.608v-3.646
		c0-0.365,0.243-0.608,0.608-0.608h4.739c0.486,0,0.729,0.243,0.729,0.608V20.051z"/>
	<path fill="#B8D432" d="M27.71,27.342c0,0.365-0.243,0.608-0.608,0.608h-4.861c-0.365,0-0.608-0.243-0.608-0.608v-3.646
		c0-0.365,0.243-0.608,0.608-0.608h4.739c0.486,0,0.729,0.243,0.729,0.608V27.342z"/>
</g>
<path fill="#FFFFFF" d="M29.817,31c-1,3.9-4.4,6.6-8.4,6.6c-0.7,0-1.4-0.1-2.1-0.3c-1-0.3-2-0.7-2.8-1.3c-0.9-0.6-1.6-1.4-2.2-2.2
	c-1.3-2-1.9-4.4-1.3-6.9c1-3.9,4.4-6.6,8.4-6.6c0.7,0,1.4,0.1,2.1,0.3c2.2,0.6,4.1,1.9,5.3,3.9C30.017,26.4,30.417,28.8,29.817,31"
	/>
<path opacity="0.1" fill="#59B4D9" enable-background="new    " d="M29.817,31c-1,3.9-4.4,6.6-8.4,6.6c-0.7,0-1.4-0.1-2.1-0.3
	c-1-0.3-2-0.7-2.8-1.3c-0.9-0.6-1.6-1.4-2.2-2.2c-1.3-2-1.9-4.4-1.3-6.9c1-3.9,4.4-6.6,8.4-6.6c0.7,0,1.4,0.1,2.1,0.3
	c2.2,0.6,4.1,1.9,5.3,3.9C30.017,26.4,30.417,28.8,29.817,31"/>
<path opacity="0.3" fill="#59B4D9" enable-background="new    " d="M26.117,21.7c-0.8-0.5-1.7-0.9-2.6-1.1c-0.7-0.2-1.4-0.3-2.1-0.3
	c-4,0-7.4,2.7-8.4,6.6c-0.6,2.5-0.1,5,1.3,6.9c0.2,0.3,0.5,0.7,0.8,1C16.917,29.1,20.917,24.4,26.117,21.7"/>
<path fill="#3E3E3E" d="M32.017,22.6c-1.7-2.8-4.4-4.8-7.6-5.6c-1-0.2-2-0.4-3-0.4c-5.7,0-10.6,3.9-12,9.4c-0.8,3.1-0.3,6.3,1.3,9.1
	l-9.4,9.5c-1.2,1.2-1.2,3.3,0,4.5c0.7,0.6,1.5,0.9,2.3,0.9s1.6-0.3,2.3-0.9l9.4-9.5c1,0.6,2.1,1,3.2,1.3c1,0.2,2,0.4,3,0.4
	c5.7,0,10.6-3.9,12-9.4C34.217,28.7,33.717,25.4,32.017,22.6z M29.817,31c-1,3.9-4.4,6.6-8.4,6.6c-0.7,0-1.4-0.1-2.1-0.3
	c-1-0.3-2-0.7-2.8-1.3c-0.9-0.6-1.6-1.4-2.2-2.2c-1.3-2-1.9-4.4-1.3-6.9c1-3.9,4.4-6.6,8.4-6.6c0.7,0,1.4,0.1,2.1,0.3
	c2.2,0.6,4.1,1.9,5.3,3.9S30.417,28.8,29.817,31z"/>
<path opacity="0.5" fill="#1E1E1E" enable-background="new    " d="M14.417,39.1c-1.3-0.9-2.3-1.9-3.2-3.2c-0.2-0.3-0.3-0.5-0.5-0.8
	l-0.8,0.9l-0.1,0.1c0.1,0.2,0.2,0.4,0.4,0.6c1,1.4,2.1,2.6,3.5,3.6c0.1,0.1,0.4,0.2,0.7,0.3l0.9-0.9
	C14.917,39.4,14.717,39.3,14.417,39.1z"/>
</svg>
