<?xml version="1.0" encoding="utf-8"?>
<!-- Generator: Adobe Illustrator 20.0.0, SVG Export Plug-In . SVG Version: 6.00 Build 0)  -->
<svg version="1.1" id="Layer_1" xmlns="http://www.w3.org/2000/svg" xmlns:xlink="http://www.w3.org/1999/xlink" x="0px" y="0px"
	 viewBox="0 0 30 30" style="enable-background:new 0 0 30 30;" xml:space="preserve">
<style type="text/css">
	.st0{fill:#67B1D8;}
	.st1{fill:none;}
	.st2{fill:#B7D332;}
</style>
<path class="st0" d="M0.4,9.8l0,9.7c0,1.3,1.1,2.1,2.4,2.1h4.5l0,3.9l4-3.9h4.8c1.3,0,1.4-0.7,1.4-2v-9.5c0-1.3-0.1-2.5-1.4-2.5H2.8
	C1.5,7.6,0.4,8.5,0.4,9.8z"/>
<rect x="0.6" y="10.6" class="st1" width="21" height="21"/>
<path class="st2" d="M27,5.6H13.6c-1.3,0-2,0.9-2,2.2v9.4c0,1.3,0.7,2.3,2,2.3h4.8l4,3.9l0-3.9h4.5c1.3,0,2.4-0.9,2.4-2.3l0-9.5
	C29.4,6.5,28.3,5.6,27,5.6z"/>
</svg>
