<?xml version="1.0" encoding="utf-8"?>
<!-- Generator: Adobe Illustrator 20.1.0, SVG Export Plug-In . SVG Version: 6.00 Build 0)  -->
<svg version="1.1" id="Layer_1" xmlns="http://www.w3.org/2000/svg" xmlns:xlink="http://www.w3.org/1999/xlink" x="0px" y="0px"
	 width="50px" height="50px" viewBox="0 0 50 50" enable-background="new 0 0 50 50" xml:space="preserve">
<path fill="#59B4D9" d="M44,14.2c0-0.4,0.1-0.9,0.1-1.3c0-7.1-5.8-12.8-13-12.8C26.9,0,23,2,20.6,5.3c-1.5-1-3.3-1.5-5.2-1.5
	c-5.4,0-9.8,4.4-9.8,9.7v0.8C2,16.2,0,19.3,0,23.1c0,6,4.9,10.7,11.2,10.7h27.6c6.3,0,11.2-4.7,11.2-10.7C50,19.1,47.8,15.9,44,14.2
	z"/>
<path opacity="0.2" fill="#FFFFFF" enable-background="new    " d="M7,28c0-4.1,2.1-7.3,6-9.3v-0.8c0-5.7,4.7-10.3,10.4-10.3
	c2,0,3.9,0.5,5.5,1.5c2.5-3.5,6.7-5.7,11.2-5.7l0,0c-2.4-2.1-5.5-3.4-9-3.4C26.9,0,23,2,20.6,5.3c-1.5-1-3.3-1.5-5.2-1.5
	c-5.4,0-9.8,4.4-9.8,9.7v0.8C2,16.2,0,19.3,0,23.1c0,5.1,3.5,9.3,8.4,10.4C7.5,31.9,7,30,7,28z"/>
<polygon fill="#804998" points="26.931,44.244 33.833,37.696 33.833,41.249 25.504,50 17.167,41.28 17.167,37.738 24.032,44.244 
	24.032,32.646 26.931,32.646 "/>
<polygon fill="#FFFFFF" points="24.069,22.402 17.167,28.95 17.167,25.397 25.496,16.646 33.833,25.366 33.833,28.908 
	26.968,22.402 26.968,34 24.069,34 "/>
</svg>
