<?xml version="1.0" encoding="utf-8"?>
<!-- Generator: Adobe Illustrator 20.0.0, SVG Export Plug-In . SVG Version: 6.00 Build 0)  -->
<svg version="1.1" id="Layer_1" xmlns="http://www.w3.org/2000/svg" xmlns:xlink="http://www.w3.org/1999/xlink" x="0px" y="0px"
	 width="50px" height="50px" viewBox="0 0 50 50" enable-background="new 0 0 50 50" xml:space="preserve">
<rect x="8" fill="#7FBA00" width="29.205" height="43.856"/>
<path d="M34.205,3.477v25.901c0,6.408-5.195,11.602-11.602,11.602h0C16.195,40.981,11,35.786,11,29.379V3.477H34.205z"/>
<rect x="37.205" y="3.846" fill="#FCD116" width="4.501" height="8.577"/>
<rect x="37.205" y="16.084" fill="#FCD116" width="4.501" height="22.825"/>
<polygon fill="#A0A1A2" points="41.456,45.954 5.866,45.954 5.866,50 3.767,50 3.767,43.856 41.456,43.856 "/>
<path fill="#E5E5E5" d="M25.034,28.769c0,1.343-1.089,2.431-2.431,2.431l0,0c-1.343,0-2.431-1.089-2.431-2.431l0,0
	c0-1.343,1.089-2.431,2.431-2.431l0,0C23.946,26.337,25.034,27.426,25.034,28.769L25.034,28.769z"/>
<circle fill="#7A7A7A" cx="22.611" cy="29" r="8.139"/>
<circle cx="22.611" cy="29" r="4"/>
<path d="M19.554,23.796c0-2.724,2.006-4.973,4.62-5.367c-0.266-0.04-0.537-0.068-0.815-0.068c-3.002,0-5.435,2.433-5.435,5.435
	c0,3.002,2.433,5.435,5.435,5.435c0.278,0,0.548-0.027,0.815-0.068C21.56,28.769,19.554,26.52,19.554,23.796z"/>
<path d="M25.669,34.204c0,2.724-2.006,4.973-4.62,5.367c0.266,0.04,0.537,0.068,0.815,0.068c3.002,0,5.435-2.433,5.435-5.435
	c0-3.002-2.433-5.435-5.435-5.435c-0.278,0-0.548,0.027-0.815,0.068C23.663,29.231,25.669,31.48,25.669,34.204z"/>
<path d="M27.815,25.942c2.724,0,4.973,2.006,5.367,4.62c0.04-0.266,0.068-0.537,0.068-0.815c0-3.002-2.433-5.435-5.435-5.435
	c-3.002,0-5.435,2.433-5.435,5.435c0,0.278,0.027,0.548,0.068,0.815C22.842,27.948,25.091,25.942,27.815,25.942z"/>
<path d="M17.408,32.058c-2.724,0-4.973-2.006-5.367-4.62c-0.04,0.266-0.068,0.537-0.068,0.815c0,3.002,2.433,5.435,5.435,5.435
	c3.002,0,5.435-2.433,5.435-5.435c0-0.278-0.027-0.548-0.068-0.815C22.381,30.052,20.132,32.058,17.408,32.058z"/>
<path d="M24.129,23.158c1.926-1.926,4.935-2.098,7.062-0.528c-0.16-0.217-0.332-0.428-0.528-0.624c-2.122-2.122-5.564-2.122-7.686,0
	c-2.122,2.122-2.122,5.564,0,7.686c0.196,0.196,0.407,0.368,0.624,0.528C22.031,28.093,22.203,25.084,24.129,23.158z"/>
<path d="M21.094,34.842c-1.926,1.926-4.935,2.098-7.062,0.528c0.16,0.217,0.332,0.428,0.528,0.624c2.122,2.122,5.564,2.122,7.686,0
	c2.122-2.122,2.122-5.564,0-7.686c-0.196-0.196-0.407-0.368-0.624-0.528C23.192,29.907,23.02,32.916,21.094,34.842z"/>
<path d="M28.453,30.517c1.926,1.926,2.098,4.935,0.528,7.062c0.217-0.16,0.428-0.332,0.624-0.528c2.122-2.122,2.122-5.564,0-7.686
	c-2.122-2.122-5.564-2.122-7.686,0c-0.196,0.196-0.368,0.407-0.528,0.624C23.518,28.419,26.527,28.591,28.453,30.517z"/>
<path d="M16.77,27.483c-1.926-1.926-2.098-4.935-0.528-7.062c-0.217,0.16-0.428,0.332-0.624,0.528c-2.122,2.122-2.122,5.564,0,7.686
	c2.122,2.122,5.564,2.122,7.686,0c0.196-0.196,0.368-0.407,0.528-0.624C21.705,29.581,18.696,29.409,16.77,27.483z"/>
<path opacity="0.2" fill="#FFFFFF" enable-background="new    " d="M25.034,9.477c0,1.343-1.089,2.431-2.431,2.431l0,0
	c-1.343,0-2.431-1.089-2.431-2.431l0,0c0-1.343,1.089-2.431,2.431-2.431l0,0C23.946,7.045,25.034,8.134,25.034,9.477L25.034,9.477z"
	/>
<path opacity="0.2" fill="#FFFFFF" enable-background="new    " d="M25.034,16.385c0,1.343-1.089,2.431-2.431,2.431l0,0
	c-1.343,0-2.431-1.089-2.431-2.431l0,0c0-1.343,1.089-2.431,2.431-2.431l0,0C23.946,13.953,25.034,15.042,25.034,16.385
	L25.034,16.385z"/>
</svg>
