<?xml version="1.0" encoding="utf-8"?>
<!-- Generator: Adobe Illustrator 20.0.0, SVG Export Plug-In . SVG Version: 6.00 Build 0)  -->
<!DOCTYPE svg PUBLIC "-//W3C//DTD SVG 1.1//EN" "http://www.w3.org/Graphics/SVG/1.1/DTD/svg11.dtd">
<svg version="1.1" id="Layer_1" xmlns="http://www.w3.org/2000/svg" xmlns:xlink="http://www.w3.org/1999/xlink" x="0px" y="0px"
	 width="50px" height="50px" viewBox="0 0 50 50" enable-background="new 0 0 50 50" xml:space="preserve">
<path fill="#59B4D9" d="M29.364,47.462c0,1.402-1.136,2.538-2.538,2.538H2.538C1.136,50,0,48.864,0,47.462V2.538
	C0,1.136,1.136,0,2.538,0h24.288c1.402,0,2.538,1.136,2.538,2.538V47.462z"/>
<path fill="#0072C6" d="M4.316,27.024c0-1.762,1.429-3.191,3.191-3.191h14.614c1.762,0,3.191,1.429,3.191,3.191l0,0
	c0,1.762-1.429,3.191-3.191,3.191H7.507C5.745,30.215,4.316,28.787,4.316,27.024L4.316,27.024z"/>
<circle fill="#B8D432" cx="7.643" cy="27.024" r="2.142"/>
<path fill="#0072C6" d="M4.316,17.545c0-1.762,1.429-3.191,3.191-3.191h14.614c1.762,0,3.191,1.429,3.191,3.191l0,0
	c0,1.762-1.429,3.191-3.191,3.191H7.507C5.745,20.736,4.316,19.307,4.316,17.545L4.316,17.545z"/>
<circle fill="#B8D432" cx="7.643" cy="17.545" r="2.142"/>
<path fill="#0072C6" d="M4.316,8.065c0-1.762,1.429-3.191,3.191-3.191h14.614c1.762,0,3.191,1.429,3.191,3.191l0,0
	c0,1.762-1.429,3.191-3.191,3.191H7.507C5.745,11.257,4.316,9.828,4.316,8.065L4.316,8.065z"/>
<circle fill="#B8D432" cx="7.643" cy="8.065" r="2.142"/>
<path fill="#FFFFFF" d="M38.951,20.35l-2.732,0.589l-3.343,1.095l-0.425,1.411v1.913v1.931l-1.119,4.137l-2.121,2.346l-1.414,4.625
	c0,0,2.18,2.338,2.239,2.751c0.059,0.412,1.885,5.185,1.885,5.185l2.121,0.766h4.301l4.521-0.41l4.14-4.068v-4.224l-2.814-6.676
	l-2.076-3.348l-0.766-2.308l-0.856-4.505l-0.832-1.21C39.66,20.35,38.951,20.35,38.951,20.35z"/>
<path fill="#FCD116" d="M38.897,25.736c-0.298-0.128-0.522-0.205-0.72-0.273c-0.275-0.095-0.474-0.163-0.705-0.313
	c-0.558-0.359-1.088-0.551-1.582-0.573l0.001-0.003h-0.093c-0.222,0.001-0.441,0.038-0.651,0.111c-0.5,0.172-0.849,0.51-1.08,0.734
	c-0.028,0.027-0.053,0.052-0.078,0.075l-0.005,0.005c-0.029,0.027-0.069,0.056-0.138,0.106l-0.094,0.068
	c-0.14,0.103-0.351,0.257-0.654,0.484c-0.286,0.214-0.384,0.503-0.284,0.834c0.108,0.358,0.449,0.714,0.96,1.003
	c0.217,0.128,0.391,0.286,0.559,0.44c0.09,0.082,0.174,0.159,0.265,0.232c0.248,0.199,0.55,0.388,1.077,0.419
	c0.049,0.003,0.097,0.004,0.144,0.004c0.547,0,0.942-0.184,1.256-0.364c0.123-0.07,0.24-0.146,0.354-0.219
	c0.232-0.149,0.451-0.291,0.689-0.368c0.713-0.223,1.292-0.685,1.477-1.179c0.09-0.242,0.083-0.469-0.021-0.674
	C39.459,26.058,39.231,25.873,38.897,25.736z"/>
<path fill="#FCD116" d="M48.751,43.403l-0.005-0.005c-0.301-0.339-0.406-0.807-0.507-1.26l-0.035-0.157
	c-0.133-0.58-0.272-0.987-0.55-1.223c-0.369-0.323-0.737-0.359-1.188-0.348c-0.065,0.002-0.132,0.004-0.2,0.007l-0.109,0.005
	l-0.016,0.019c-0.44,0.506-1.358,1.053-2.074,1.053c-0.108,0-0.21-0.012-0.304-0.037c-0.729-0.184-1.103-1.045-1.15-1.816
	l-0.005-0.063l-0.062,0.01l-0.016,0.005c-0.021,0.011-0.043,0.022-0.065,0.034c-0.443,0.243-0.719,0.665-0.895,1.371
	c-0.164,0.657-0.217,1.504-0.266,2.465c-0.033,0.532-0.215,1.147-0.408,1.797c-0.075,0.252-0.152,0.512-0.22,0.767
	c-0.297,1.118-0.319,1.86-0.067,2.339c0.411,0.826,1.095,1.263,1.976,1.263c0.071,0,0.143-0.003,0.216-0.009
	c0.97-0.077,1.992-0.674,2.802-1.638c0.688-0.833,1.675-1.305,2.468-1.684c0.313-0.15,0.609-0.291,0.85-0.436
	c0.482-0.291,0.686-0.54,0.704-0.86C49.647,44.61,49.353,44.072,48.751,43.403z"/>
<path fill="#FCD116" d="M31.902,44.547c-0.447-0.555-0.87-1.079-1.103-1.563l-0.004-0.011c-0.381-0.817-0.795-1.657-1.244-2.267
	c-0.466-0.632-0.918-0.963-1.422-1.039c-0.077-0.012-0.153-0.018-0.223-0.018l-0.053,0.001v0.001
	c-0.413,0.016-0.676,0.236-0.898,0.473c-0.147,0.157-0.281,0.341-0.423,0.535c-0.15,0.206-0.305,0.419-0.484,0.608
	c-0.304,0.304-0.67,0.428-1.025,0.547c-0.066,0.022-0.132,0.044-0.195,0.067c-0.392,0.141-0.735,0.293-0.969,0.743
	c-0.17,0.315-0.148,0.75-0.063,1.306c0.009,0.058,0.018,0.116,0.028,0.175c0.071,0.442,0.145,0.899,0.008,1.322
	c-0.289,0.787-0.343,1.365-0.162,1.717c0.148,0.288,0.461,0.468,1.016,0.584c0.303,0.063,0.658,0.101,1.035,0.142
	c0.898,0.097,1.915,0.206,2.824,0.688l0.014,0.007l0,0c0.86,0.448,1.767,0.694,2.556,0.694c0.256,0,0.498-0.026,0.72-0.076
	c0.966-0.221,1.493-0.831,1.568-1.818c0.053-0.527-0.264-1.22-0.998-2.181C32.242,44.969,32.069,44.754,31.902,44.547z"/>
<path fill="#1E1E1E" d="M37.276,17.545c-0.208,0-0.426,0.008-0.653,0.026c-5.73,0.461-4.21,6.515-4.295,8.541
	c-0.105,1.482-0.405,2.65-1.425,4.1c-1.198,1.424-2.884,3.73-3.683,6.129c-0.377,1.133-0.556,2.287-0.391,3.379
	c-0.052,0.046-0.101,0.095-0.148,0.145c-0.352,0.375-0.611,0.83-0.901,1.137c-0.27,0.27-0.656,0.372-1.079,0.524
	c-0.424,0.152-0.889,0.376-1.171,0.918l0,0c0,0.001-0.001,0.002-0.002,0.003l0,0c-0.256,0.477-0.18,1.027-0.102,1.536
	c0.078,0.509,0.157,0.991,0.052,1.317c-0.335,0.916-0.378,1.55-0.142,2.01c0.237,0.461,0.723,0.664,1.273,0.779
	c1.099,0.23,2.588,0.173,3.762,0.794l0.101-0.19l-0.1,0.191c1.256,0.657,2.53,0.89,3.546,0.658c0.737-0.168,1.335-0.607,1.642-1.282
	c0.795-0.004,1.667-0.34,3.064-0.417c0.948-0.076,2.131,0.337,3.493,0.261c0.036,0.148,0.087,0.29,0.158,0.425
	c0.001,0.002,0.002,0.003,0.002,0.004c0.528,1.056,1.509,1.538,2.554,1.456c1.047-0.083,2.159-0.7,3.059-1.77l-0.165-0.139
	l0.166,0.137c0.857-1.04,2.28-1.471,3.224-2.04c0.472-0.285,0.855-0.641,0.884-1.158c0.03-0.517-0.274-1.097-0.972-1.872l0,0
	l-0.001-0.001c-0.229-0.259-0.339-0.74-0.457-1.252c-0.118-0.511-0.249-1.063-0.669-1.421l0,0c-0.001-0.001-0.002-0.002-0.002-0.002
	l0,0c-0.167-0.146-0.341-0.244-0.516-0.311c0.584-1.731,0.355-3.455-0.235-5.013c-0.723-1.912-1.986-3.578-2.95-4.717
	c-1.079-1.361-2.135-2.654-2.114-4.563C42.115,22.955,42.403,17.552,37.276,17.545L37.276,17.545z M37.97,22.034
	c0.291,0,0.539,0.085,0.795,0.271c0.259,0.188,0.446,0.424,0.597,0.753c0.148,0.321,0.219,0.634,0.226,1.007
	c0,0.01,0,0.018,0.003,0.028c0.003,0.382-0.063,0.707-0.208,1.039c-0.083,0.189-0.178,0.348-0.291,0.486
	c-0.039-0.019-0.079-0.036-0.12-0.053l0,0c-0.288-0.123-0.509-0.202-0.694-0.266c0.067-0.08,0.122-0.176,0.171-0.295
	c0.074-0.18,0.11-0.355,0.117-0.565c0-0.008,0.003-0.015,0.003-0.025c0.004-0.201-0.022-0.372-0.081-0.548
	c-0.061-0.184-0.139-0.316-0.252-0.427s-0.226-0.16-0.361-0.164c-0.006,0-0.013,0-0.019,0c-0.127,0-0.238,0.044-0.352,0.14
	c-0.12,0.1-0.209,0.229-0.283,0.407s-0.11,0.355-0.117,0.566c-0.002,0.008-0.002,0.015-0.002,0.024
	c-0.002,0.116,0.005,0.222,0.023,0.325c-0.26-0.13-0.506-0.218-0.736-0.273c-0.013-0.1-0.021-0.202-0.023-0.31v-0.029
	c-0.004-0.381,0.059-0.707,0.205-1.039c0.146-0.332,0.328-0.57,0.583-0.764s0.506-0.283,0.803-0.286
	C37.961,22.034,37.965,22.034,37.97,22.034L37.97,22.034z M33.988,22.349c0.193,0,0.366,0.065,0.544,0.208
	c0.194,0.155,0.34,0.353,0.463,0.632s0.188,0.558,0.206,0.887v0.003c0.009,0.138,0.008,0.268-0.003,0.394
	c-0.038,0.011-0.076,0.023-0.112,0.035c-0.208,0.072-0.392,0.169-0.551,0.275c0.016-0.11,0.018-0.222,0.006-0.347
	c-0.002-0.007-0.002-0.013-0.002-0.019c-0.017-0.166-0.052-0.305-0.11-0.446c-0.063-0.146-0.132-0.25-0.224-0.329
	c-0.083-0.072-0.162-0.105-0.249-0.104c-0.009,0-0.018,0-0.027,0.001c-0.098,0.008-0.178,0.056-0.255,0.149
	s-0.127,0.209-0.163,0.362s-0.046,0.304-0.031,0.477c0,0.007,0.002,0.013,0.002,0.019c0.017,0.167,0.05,0.307,0.11,0.447
	c0.061,0.145,0.132,0.248,0.224,0.328c0.015,0.013,0.031,0.025,0.046,0.036c-0.096,0.074-0.141,0.108-0.22,0.165
	c-0.05,0.037-0.11,0.081-0.18,0.132c-0.152-0.142-0.27-0.321-0.374-0.556c-0.123-0.279-0.188-0.558-0.208-0.887v-0.003
	c-0.018-0.329,0.014-0.612,0.105-0.905c0.091-0.293,0.212-0.505,0.388-0.679c0.176-0.174,0.353-0.262,0.566-0.273
	C33.955,22.35,33.972,22.349,33.988,22.349L33.988,22.349z M35.799,24.632c0.449-0.002,0.988,0.145,1.642,0.566
	c0.401,0.261,0.714,0.283,1.433,0.591h0.001h0.001c0.346,0.142,0.549,0.327,0.648,0.522s0.102,0.406,0.019,0.629
	c-0.166,0.445-0.696,0.913-1.44,1.145h-0.001h-0.001c-0.363,0.118-0.679,0.378-1.052,0.591s-0.795,0.385-1.369,0.352l0,0
	c-0.489-0.028-0.781-0.194-1.045-0.407c-0.264-0.212-0.494-0.479-0.831-0.677l-0.001-0.001l-0.001-0.001
	c-0.543-0.307-0.839-0.662-0.932-0.969c-0.093-0.308-0.006-0.57,0.264-0.772c0.303-0.227,0.513-0.381,0.653-0.484
	c0.139-0.102,0.197-0.14,0.241-0.183c0,0,0,0,0.001-0.001l0,0c0.227-0.215,0.59-0.608,1.137-0.796
	C35.354,24.674,35.564,24.632,35.799,24.632L35.799,24.632z M38.936,26.487c-0.194,0.012-0.396,0.111-0.632,0.243
	s-0.502,0.3-0.789,0.466c-0.575,0.332-1.238,0.65-1.896,0.65c-0.659,0-1.186-0.304-1.581-0.618
	c-0.198-0.157-0.361-0.314-0.491-0.436c-0.065-0.061-0.122-0.113-0.174-0.154s-0.096-0.081-0.184-0.081l-0.004,0.185
	c-0.006,0.062-0.013,0.06-0.01,0.062c0.004,0.003,0.025,0.01,0.048,0.028c0.039,0.03,0.093,0.079,0.156,0.138
	c0.128,0.12,0.297,0.284,0.506,0.449c0.418,0.331,0.999,0.671,1.733,0.671c0.736,0,1.432-0.344,2.019-0.682
	c0.293-0.169,0.56-0.338,0.786-0.465c0.226-0.126,0.417-0.206,0.527-0.212L38.936,26.487L38.936,26.487z M39.59,27.368
	c0.489,1.927,1.625,4.709,2.356,6.067c0.388,0.72,1.161,2.251,1.495,4.096c0.212-0.006,0.444,0.024,0.694,0.088
	c0.873-2.263-0.74-4.7-1.478-5.378c-0.298-0.289-0.312-0.418-0.164-0.412c0.8,0.708,1.851,2.131,2.233,3.737
	c0.174,0.733,0.211,1.503,0.024,2.263c0.091,0.038,0.184,0.079,0.279,0.124c1.401,0.682,1.919,1.275,1.67,2.085
	c-0.082-0.003-0.163-0.002-0.241-0.001c-0.007,0-0.015,0-0.022,0.001c0.203-0.642-0.247-1.115-1.444-1.657
	c-1.242-0.546-2.232-0.492-2.399,0.616c-0.011,0.058-0.019,0.117-0.026,0.177c-0.093,0.032-0.186,0.073-0.28,0.125
	c-0.583,0.319-0.902,0.898-1.079,1.608c-0.177,0.71-0.228,1.568-0.276,2.532v0.001c-0.03,0.485-0.229,1.141-0.431,1.836
	c-2.035,1.451-4.859,2.08-7.257,0.444c-0.162-0.257-0.349-0.512-0.541-0.763c-0.123-0.16-0.248-0.32-0.374-0.477
	c0.246,0,0.455-0.04,0.624-0.117c0.21-0.095,0.358-0.248,0.431-0.445c0.146-0.393-0.001-0.948-0.469-1.581
	c-0.468-0.633-1.261-1.348-2.425-2.062l0,0c-0.856-0.532-1.334-1.185-1.558-1.893s-0.193-1.474-0.02-2.231
	c0.331-1.452,1.183-2.864,1.726-3.75c0.146-0.108,0.052,0.2-0.55,1.318c-0.54,1.022-1.549,3.382-0.167,5.223
	c0.037-1.311,0.35-2.647,0.875-3.898c0.765-1.735,2.366-4.744,2.493-7.141c0.066,0.048,0.291,0.2,0.391,0.257c0,0,0,0,0.001,0
	c0.294,0.173,0.514,0.426,0.8,0.655c0.286,0.23,0.644,0.429,1.184,0.46l0,0c0.631,0.036,1.111-0.159,1.505-0.384
	c0.393-0.225,0.707-0.474,1.005-0.571h0.001C38.805,28.122,39.305,27.774,39.59,27.368L39.59,27.368z M43.584,38.397
	c0.255-0.001,0.563,0.084,0.901,0.235c0.909,0.42,1.193,0.779,0.945,1.308c-0.209,0.399-1.104,1.033-1.717,0.866
	c-0.626-0.162-0.931-1.064-0.829-1.745C42.937,38.597,43.199,38.399,43.584,38.397L43.584,38.397z M42.555,39.643
	c0.051,0.834,0.464,1.684,1.193,1.868c0.798,0.21,1.949-0.475,2.435-1.033c0.097-0.004,0.192-0.009,0.284-0.011
	c0.426-0.01,0.784,0.014,1.149,0.333l0.001,0.001l0.001,0.001c0.281,0.238,0.414,0.687,0.53,1.191s0.208,1.052,0.555,1.442
	l0.001,0.001v0.001c0.667,0.74,0.882,1.241,0.863,1.56c-0.018,0.319-0.25,0.557-0.677,0.814c-0.854,0.515-2.366,0.963-3.333,2.133
	c-0.839,0.998-1.862,1.547-2.763,1.618s-1.678-0.303-2.137-1.223l-0.001-0.002l-0.001-0.002c-0.284-0.541-0.166-1.394,0.074-2.295
	c0.24-0.9,0.584-1.825,0.63-2.576v-0.001v-0.001c0.049-0.963,0.103-1.803,0.264-2.452c0.162-0.649,0.416-1.088,0.867-1.335
	C42.513,39.664,42.534,39.653,42.555,39.643L42.555,39.643z M27.905,39.706c0.067,0,0.139,0.006,0.215,0.017
	c0.511,0.077,0.956,0.434,1.385,1.016s0.828,1.376,1.239,2.258l0.001,0.001v0.001c0.33,0.688,1.026,1.445,1.615,2.217
	c0.59,0.772,1.046,1.547,0.987,2.14v0.003v0.003c-0.077,1.012-0.648,1.562-1.524,1.763c-0.876,0.2-2.063,0.001-3.249-0.619h-0.001
	c-1.312-0.695-2.873-0.626-3.874-0.835c-0.501-0.105-0.827-0.262-0.977-0.554s-0.153-0.802,0.165-1.671l0.002-0.004l0.001-0.004
	c0.158-0.486,0.041-1.018-0.036-1.517c-0.077-0.499-0.114-0.953,0.057-1.27l0.001-0.002l0.001-0.002
	c0.218-0.421,0.538-0.571,0.936-0.714c0.397-0.143,0.869-0.255,1.241-0.627l0.002-0.002l0.002-0.002
	c0.344-0.363,0.602-0.818,0.905-1.141c0.255-0.272,0.51-0.453,0.895-0.456c0.004,0,0.009,0,0.013,0L27.905,39.706z"/>
</svg>
