<?xml version="1.0" encoding="UTF-8" standalone="no"?>
<!DOCTYPE svg PUBLIC "-//W3C//DTD SVG 1.1//EN" "http://www.w3.org/Graphics/SVG/1.1/DTD/svg11.dtd">
<!-- Generated by Microsoft Visio, SVG Export Logic Apps.svg Page-1 -->
<svg xmlns="http://www.w3.org/2000/svg" xmlns:xlink="http://www.w3.org/1999/xlink" xmlns:ev="http://www.w3.org/2001/xml-events"
		xmlns:v="http://schemas.microsoft.com/visio/2003/SVGExtensions/" width="0.541667in" height="0.425in" viewBox="0 0 39 30.6"
		xml:space="preserve" color-interpolation-filters="sRGB" class="st2">
	<v:documentProperties v:langID="1033" v:viewMarkup="false">
		<v:userDefs>
			<v:ud v:nameU="visTLShowProps" v:prompt="" v:val="VT0(0):26"/>
		</v:userDefs>
	</v:documentProperties>

	<style type="text/css">
	<![CDATA[
		.st1 {fill:#0078d7;stroke:none;stroke-linecap:butt;stroke-width:0.75}
		.st2 {fill:none;fill-rule:evenodd;font-size:12px;overflow:visible;stroke-linecap:square;stroke-miterlimit:3}
	]]>
	</style>

	<g v:mID="0" v:index="1" v:groupContext="foregroundPage">
		<title>Page-1</title>
		<v:pageProperties v:drawingScale="1" v:pageScale="1" v:drawingUnits="19" v:shadowOffsetX="2.83465"
				v:shadowOffsetY="-2.83465" v:shadowType="1"/>
		<g id="shape993-1" v:mID="993" v:groupContext="shape" transform="translate(0.75,-0.75)">
			<title>Sheet.993</title>
			<path d="M31.57 1.5 L31.65 3.45 C32.25 3.45 32.62 3.6 32.92 3.9 C33.15 4.2 33.3 4.73 33.3 5.4 L33.3 12.83 C33.3 14.55
						 33.9 15.6 34.95 16.05 C33.82 16.5 33.3 17.55 33.3 19.28 L33.3 26.78 C33.3 28.05 32.7 28.65 31.57 28.65 L31.57
						 30.6 C33.15 30.6 34.28 30.3 34.95 29.7 C35.62 29.1 35.92 28.05 35.92 26.63 L35.92 19.05 C35.92 17.7 36.45
						 17.03 37.5 17.03 L37.5 15.08 C36.45 15.08 35.92 14.4 35.92 13.13 L35.92 5.33 C35.92 3.9 35.62 2.93 34.95
						 2.33 C34.28 1.8 33.15 1.5 31.57 1.5 ZM22.8 25.13 C22.8 25.95 23.48 26.63 24.3 26.63 L27.75 26.63 C28.58
						 26.63 29.25 25.95 29.25 25.13 L29.25 21.68 C29.25 20.85 28.58 20.18 27.75 20.18 L26.93 20.18 L26.93 18.9
						 C26.93 17.4 25.73 16.05 24 15.53 L20.85 14.85 C20.17 14.64 19.68 14.29 19.44 13.87 C19.48 13.67 19.5 13.48
						 19.5 13.28 L19.5 13.13 L19.5 10.95 L20.48 10.95 C21.3 10.95 21.98 10.28 21.98 9.45 L21.98 5.48 C21.98 4.65
						 21.3 3.98 20.48 3.98 L16.5 3.98 C15.68 3.98 15 4.65 15 5.48 L15 9.45 C15 10.28 15.68 10.95 16.5 10.95 L17.4
						 10.95 L17.4 13.13 L17.4 13.28 C17.4 13.48 17.42 13.67 17.46 13.87 C17.22 14.29 16.73 14.64 16.05 14.85 L13.5
						 15.38 C11.78 15.9 10.58 17.25 10.58 18.75 L10.58 20.03 L9.75 20.03 C8.93 20.03 8.25 20.7 8.25 21.53 L8.25
						 24.98 C8.25 25.8 8.93 26.48 9.75 26.48 L13.2 26.48 C14.03 26.48 14.7 25.8 14.7 24.98 L14.7 21.53 C14.7 20.7
						 14.03 20.03 13.2 20.03 L12.45 20.03 L12.45 18.75 C12.45 18.08 13.05 17.48 14.03 17.18 L16.58 16.58 C17.31
						 16.38 17.95 16.03 18.44 15.57 C18.94 16.04 19.58 16.42 20.32 16.65 L23.48 17.33 C24.45 17.63 25.05 18.23
						 25.05 18.9 L25.05 20.18 L24.3 20.18 C23.48 20.18 22.8 20.85 22.8 21.68 L22.8 25.13 ZM19.88 6.08 L19.88 8.85
						 L17.1 8.85 L17.1 6.08 L19.88 6.08 ZM5.92 30.6 L5.85 28.65 C5.25 28.65 4.87 28.5 4.57 28.2 C4.35 27.9 4.2
						 27.38 4.2 26.7 L4.2 19.28 C4.2 17.55 3.6 16.5 2.55 16.05 C3.67 15.6 4.2 14.55 4.2 12.83 L4.2 5.33 C4.2 4.05
						 4.8 3.45 5.92 3.45 L5.92 1.5 C4.35 1.5 3.22 1.73 2.55 2.33 C1.88 2.93 1.58 3.98 1.58 5.4 L1.58 13.05 C1.58
						 14.4 1.05 15.08 0 15.08 L0 17.03 C1.05 17.03 1.58 17.7 1.58 18.98 L1.58 26.78 C1.58 28.2 1.88 29.18 2.55
						 29.78 C3.22 30.3 4.35 30.6 5.92 30.6 Z" class="st1"/>
		</g>
	</g>
</svg>
