<?xml version="1.0" encoding="utf-8"?>
<!-- Generator: Adobe Illustrator 19.2.1, SVG Export Plug-In . SVG Version: 6.00 Build 0)  -->
<svg version="1.1" id="Layer_1" xmlns="http://www.w3.org/2000/svg" xmlns:xlink="http://www.w3.org/1999/xlink" x="0px" y="0px"
	 width="50px" height="50px" viewBox="0 0 50 50" enable-background="new 0 0 50 50" xml:space="preserve">
<path fill="#7FBA00" d="M0,5.663v30.122c0,3.127,7.052,5.663,15.75,5.663V5.663H0z"/>
<path fill="#7FBA00" d="M15.534,41.447h0.216c8.698,0,15.75-2.534,15.75-5.663V5.663H15.534V41.447z"/>
<path opacity="0.4" fill="#B8D432" enable-background="new    " d="M15.534,41.447h0.216c8.698,0,15.75-2.534,15.75-5.663V5.663
	H15.534V41.447z"/>
<path fill="#FFFFFF" d="M31.5,5.663c0,3.128-7.052,5.663-15.75,5.663S0,8.789,0,5.663C0,2.535,7.052,0,15.75,0
	S31.5,2.535,31.5,5.663"/>
<path fill="#DD5900" d="M28.28,5.337c0,2.065-5.61,3.736-12.53,3.736S3.22,7.401,3.22,5.337s5.61-3.736,12.53-3.736
	S28.28,3.273,28.28,5.337"/>
<path fill="#FF8C00" d="M25.655,7.619c1.64-0.632,2.626-1.422,2.626-2.281c0-2.065-5.61-3.737-12.53-3.737S3.221,3.274,3.221,5.338
	c0,0.859,0.986,1.65,2.626,2.281c2.29-0.883,5.869-1.452,9.903-1.452C19.784,6.167,23.362,6.736,25.655,7.619"/>
<path fill="#FFFFFF" d="M3.272,25.838h1.992v-7.867l3.084,6.858c0.364,0.83,0.862,1.124,1.839,1.124s1.456-0.293,1.82-1.124
	l3.084-6.858v7.867h1.992v-7.853c0-0.766-0.307-1.136-0.938-1.328c-1.513-0.472-2.528-0.064-2.988,0.957l-3.026,6.768l-2.93-6.768
	c-0.44-1.021-1.475-1.43-2.988-0.957c-0.632,0.191-0.938,0.562-0.938,1.328L3.272,25.838L3.272,25.838z"/>
<path fill="#FFFFFF" d="M18.738,19.435h1.991v4.334c-0.018,0.235,0.075,0.788,1.166,0.805c0.557,0.009,4.297,0,4.332,0v-5.16h1.996
	c0.009,0-0.002,7.037-0.002,7.067c0.011,1.736-2.154,2.112-3.151,2.142h-6.29v-1.34c0.011,0,6.285,0.002,6.301,0
	c1.282-0.135,1.131-0.773,1.131-0.987v-0.522h-4.234c-1.97-0.018-3.225-0.878-3.24-1.867C18.738,23.813,18.782,19.478,18.738,19.435
	L18.738,19.435z"/>
<path fill="#59B4D9" d="M45.073,47.402c-2.276,1.74-4.957,2.588-7.62,2.588c-3.778,0-7.514-1.696-9.983-4.925
	c-4.218-5.507-3.177-13.383,2.34-17.604c2.275-1.751,4.96-2.586,7.619-2.586c3.778,0,7.515,1.696,9.983,4.928
	C51.631,35.309,50.58,43.186,45.073,47.402"/>
<path fill="#FFFFFF" d="M42.766,39.635c0.912,1.19,2.605,1.405,3.789,0.504c0.062-0.047,0.11-0.104,0.166-0.155
	c1.21,0.853,2.051,1.415,2.525,1.738c0.14-0.363,0.237-0.712,0.337-1.076c-0.5-0.372-1.177-0.893-2.155-1.686
	c0.321-0.844,0.22-1.829-0.367-2.598c-0.839-1.085-2.324-1.361-3.485-0.692c-1.279-1.147-2.684-2.463-4.166-3.935
	c4.604-2.476,7.876-2.114,7.876-2.114c-0.546-0.696-1.158-1.306-1.812-1.857c-1.942-0.3-4.958-0.266-8.405,1.567l-0.001-0.002
	h-0.001c-1.148-1.202-2.318-2.491-3.508-3.875c-0.57,0.182-1.126,0.408-1.664,0.677c0.879,1.438,2.061,2.888,3.393,4.303l0,0
	c0.003,0.003,0.006,0.006,0.009,0.009c-1.111,0.777-2.348,1.815-3.489,3.022c-0.146,0.155-0.286,0.311-0.423,0.468
	c-0.682-0.143-1.399-0.101-2.068,0.142c-1.137-2.454-1.046-4.426-0.866-5.442c-0.494,0.517-0.955,1.062-1.352,1.641
	c-0.297,1.213-0.381,2.963,0.495,5.072c-1.014,1.327-1.062,3.21-0.003,4.598c0.088,0.115,0.183,0.222,0.281,0.324
	c-0.463,1.576-0.67,3.096-0.734,4.402c0.119,0.162,0.119,0.292,0.237,0.45c0.602,0.773,1.359,1.424,2.09,2.014
	c-0.09-1.382,0.007-3.419,0.861-5.713c0.589,0.045,1.189-0.048,1.75-0.284c0.322,0.283,0.658,0.569,1.017,0.86
	c1.232,0.976,2.462,1.735,3.66,2.333c-0.062,0.609,0.09,1.243,0.486,1.767c0.847,1.093,2.414,1.297,3.508,0.462
	c0.228-0.174,0.407-0.385,0.557-0.611c1.954,0.435,3.661,0.512,4.927,0.512c0.194,0,1.094-1.224,1.609-1.982
	c-0.771,0.161-3.056,0.475-6.18-0.422c-0.075-0.351-0.22-0.691-0.451-0.995c-0.793-1.04-2.244-1.265-3.325-0.569
	c-1.086-0.589-2.223-1.327-3.395-2.256c-0.237-0.187-0.464-0.374-0.683-0.562c0.716-1.129,0.793-2.576,0.16-3.793
	c0.144-0.144,0.285-0.288,0.438-0.431c1.161-1.085,2.253-1.953,3.275-2.65c-0.041-0.038-0.078-0.078-0.119-0.117
	c0.041,0.038,0.079,0.076,0.12,0.114c-0.001,0-0.001,0-0.001,0c1.568,1.45,3.23,2.824,4.805,4.052
	C42.067,37.731,42.132,38.807,42.766,39.635z"/>
</svg>
