<?xml version="1.0" encoding="utf-8"?>
<!-- Generator: Adobe Illustrator 20.0.0, SVG Export Plug-In . SVG Version: 6.00 Build 0)  -->
<!DOCTYPE svg PUBLIC "-//W3C//DTD SVG 1.1//EN" "http://www.w3.org/Graphics/SVG/1.1/DTD/svg11.dtd">
<svg version="1.1" id="Layer_1" xmlns="http://www.w3.org/2000/svg" xmlns:xlink="http://www.w3.org/1999/xlink" x="0px" y="0px"
	 width="50px" height="50px" viewBox="0 0 50 50" style="enable-background:new 0 0 50 50;" xml:space="preserve">
<style type="text/css">
	.st0{opacity:0.35;fill:#59B4D9;enable-background:new    ;}
	.st1{fill:#0072C6;}
	.st2{fill:#59B4D9;}
	.st3{fill:none;}
	.st4{fill:#FFFFFF;}
	.st5{opacity:0.1;fill:#59B4D9;enable-background:new    ;}
	.st6{opacity:0.3;fill:#59B4D9;enable-background:new    ;}
	.st7{fill:#7A7A7A;}
	.st8{opacity:0.5;fill:#1E1E1E;enable-background:new    ;}
</style>
<path class="st0" d="M44,14.1c0-0.4,0.1-0.9,0.1-1.3c0-7.1-5.8-12.8-13-12.8C26.9-0.1,23,1.9,20.6,5.2c-1.5-1-3.3-1.5-5.2-1.5
	c-5.4,0-9.8,4.4-9.8,9.7v0.8C2,16.1,0,19.2,0,23c0,6,4.9,10.7,11.2,10.7h27.6C45.1,33.7,50,29,50,23C50,19,47.8,15.8,44,14.1z"/>
<path class="st1" d="M15.6,22.1h-5.3v-1.5H12v-5.2l-1.8,0.4v-1.5l3.6-0.7v7.1h1.7V22.1z"/>
<path class="st2" d="M23.9,17.8c0,1.4-0.3,2.5-0.8,3.3c-0.5,0.7-1.3,1.1-2.3,1.1c-2,0-3-1.4-3-4.2c0-1.5,0.3-2.6,0.8-3.4
	c0.5-0.7,1.3-1.1,2.3-1.1C22.9,13.5,23.9,15,23.9,17.8z M22,17.9c0-2-0.4-2.9-1.1-2.9c-0.8,0-1.2,1-1.2,3c0,1.9,0.4,2.8,1.2,2.8
	C21.6,20.8,22,19.8,22,17.9z"/>
<path class="st1" d="M31.8,22.1h-5.3v-1.5h1.7v-5.2l-1.8,0.4v-1.5l3.6-0.7v7.1h1.7L31.8,22.1L31.8,22.1z"/>
<path class="st1" d="M39.9,22.1h-5.3v-1.5h1.7v-5.2l-1.8,0.4v-1.5l3.6-0.7v7.1h1.7V22.1z"/>
<path class="st1" d="M23.3,34.8h-5.3v-1.5h1.7v-5.2l-1.8,0.4V27l3.6-0.7v7.1h1.7V34.8z"/>
<path class="st1" d="M31.6,30.5c0,1.4-0.3,2.5-0.8,3.3c-0.5,0.7-1.3,1.1-2.3,1.1c-2,0-3-1.4-3-4.2c0-1.5,0.3-2.6,0.8-3.4
	c0.5-0.7,1.3-1.1,2.3-1.1C30.6,26.3,31.6,27.7,31.6,30.5z M29.7,30.6c0-2-0.4-2.9-1.1-2.9c-0.8,0-1.2,1-1.2,3c0,1.9,0.4,2.8,1.2,2.8
	C29.3,33.5,29.7,32.6,29.7,30.6z"/>
<path class="st3" d="M4.1,15.2C4.1,15.1,4.1,15.1,4.1,15.2C4.1,15.1,4.1,15.1,4.1,15.2z"/>
<path class="st1" d="M7.1,8.4C6.9,8.7,6.7,9,6.5,9.4h0.5V8.4z"/>
<path class="st2" d="M12.3,9.5c1,0,1.7-0.4,2.3-1.1c0.5-0.8,0.8-1.9,0.8-3.3c0-0.5,0-1-0.1-1.4c-0.6,0-1.2,0.1-1.8,0.2
	c0,0.4,0.1,0.8,0.1,1.2c0,2-0.4,2.9-1.1,2.9c-0.8,0-1.2-0.9-1.2-2.8c0-0.2,0-0.4,0-0.6C10.5,5,9.9,5.4,9.3,5.9
	C9.4,8.3,10.4,9.5,12.3,9.5z"/>
<path class="st1" d="M17.9,7.9v1.5h5.3V7.9h-1.7V4.1c-0.3,0.4-0.6,0.7-0.9,1.1C20.3,5,20,4.8,19.7,4.7v3.2
	C19.7,7.9,17.9,7.9,17.9,7.9z"/>
<path class="st2" d="M28.6,0.8c-1,0-1.8,0.4-2.3,1.1c-0.6,0.8-0.8,1.9-0.8,3.4c0,2.8,1,4.2,3,4.2c1,0,1.7-0.4,2.3-1.1
	c0.5-0.8,0.8-1.9,0.8-3.3C31.6,2.2,30.6,0.8,28.6,0.8z M28.5,8.1c-0.8,0-1.2-0.9-1.2-2.8c0-2,0.4-3,1.2-3c0.8,0,1.1,1,1.1,2.9
	S29.3,8.1,28.5,8.1z"/>
<path class="st1" d="M34.1,3l1.8-0.4v5.2h-1.7v1.5h5.3V7.9h-1.7V1.8c-0.4-0.3-0.9-0.5-1.4-0.7l-2.2,0.5L34.1,3L34.1,3z"/>
<path class="st1" d="M42.3,9.4h1.4c-0.1-0.5-0.3-1-0.5-1.5h-0.9V9.4z"/>
<path class="st2" d="M4.6,22.2c1,0,1.7-0.4,2.3-1.1c0.5-0.8,0.8-1.9,0.8-3.3c0-2.4-0.7-3.8-2-4.1v0.5c-0.5,0.3-1,0.6-1.5,0.9
	c0.1-0.1,0.3-0.2,0.5-0.2c0.8,0,1.1,1,1.1,2.9s-0.4,2.9-1.1,2.9c-0.8,0-1.2-0.9-1.2-2.8c0-1.5,0.2-2.4,0.7-2.8
	c-1,0.7-1.9,1.6-2.5,2.6c0,0.1,0,0.2,0,0.3C1.6,20.8,2.6,22.2,4.6,22.2z"/>
<path class="st2" d="M42.9,14.6c-0.6,0.8-0.8,1.9-0.8,3.4c0,2.8,1,4.2,3,4.2c1,0,1.7-0.4,2.3-1.1c0.5-0.8,0.8-1.9,0.8-3.3
	c0-0.2,0-0.3,0-0.5c-1-1.3-2.4-2.4-4.1-3.2c0-0.1,0-0.2,0-0.3C43.6,13.9,43.2,14.2,42.9,14.6z M45.1,14.9c0.8,0,1.1,1,1.1,2.9
	s-0.4,2.9-1.1,2.9c-0.8,0-1.2-0.9-1.2-2.8C43.9,16,44.3,14.9,45.1,14.9z"/>
<path class="st1" d="M1.7,27v1.5l1.8-0.4v2.7c0.6,0.5,1.2,1,1.8,1.3v-5.9L1.7,27z"/>
<path class="st2" d="M12.4,26.3c-1,0-1.8,0.4-2.3,1.1c-0.6,0.8-0.8,1.9-0.8,3.4c0,1.2,0.2,2.2,0.6,2.9c0.4,0,0.9,0.1,1.3,0.1h3.4
	c0.5-0.8,0.7-1.8,0.7-3.2C15.4,27.7,14.4,26.3,12.4,26.3z M12.3,33.5c-0.8,0-1.2-0.9-1.2-2.8c0-2,0.4-3,1.2-3c0.8,0,1.1,1,1.1,2.9
	S13.1,33.5,12.3,33.5z"/>
<path class="st1" d="M37.7,33.3v-7.1L34.1,27v1.5l1.8-0.4v5.2h-1.7v0.4h4.7c0.2,0,0.4,0,0.7,0v-0.3L37.7,33.3L37.7,33.3z"/>
<path class="st1" d="M45.8,26.3L42.2,27v1.5l1.8-0.4v4.4c0.7-0.3,1.3-0.7,1.8-1.1V26.3z"/>
<path class="st4" d="M26.9,20.7c3.9,1,6.6,4.4,6.6,8.4c0,0.7-0.1,1.4-0.3,2.1c-0.3,1-0.7,2-1.3,2.8c-0.6,0.9-1.4,1.6-2.2,2.2
	c-2,1.3-4.4,1.9-6.9,1.3c-3.9-1-6.6-4.4-6.6-8.4c0-0.7,0.1-1.4,0.3-2.1c0.6-2.2,1.9-4.1,3.9-5.3C22.3,20.5,24.7,20.1,26.9,20.7"/>
<path class="st5" d="M26.9,20.7c3.9,1,6.6,4.4,6.6,8.4c0,0.7-0.1,1.4-0.3,2.1c-0.3,1-0.7,2-1.3,2.8c-0.6,0.9-1.4,1.6-2.2,2.2
	c-2,1.3-4.4,1.9-6.9,1.3c-3.9-1-6.6-4.4-6.6-8.4c0-0.7,0.1-1.4,0.3-2.1c0.6-2.2,1.9-4.1,3.9-5.3C22.3,20.5,24.7,20.1,26.9,20.7"/>
<path class="st6" d="M17.6,24.4c-0.5,0.8-0.9,1.7-1.1,2.6c-0.2,0.7-0.3,1.4-0.3,2.1c0,4,2.7,7.4,6.6,8.4c2.5,0.6,5,0.1,6.9-1.3
	c0.3-0.2,0.7-0.5,1-0.8C25,33.6,20.3,29.6,17.6,24.4"/>
<path class="st7" d="M18.5,18.5c-2.8,1.7-4.8,4.4-5.6,7.6c-0.2,1-0.4,2-0.4,3c0,5.7,3.9,10.6,9.4,12c3.1,0.8,6.3,0.3,9.1-1.3
	l9.5,9.4c1.2,1.2,3.3,1.2,4.5,0c0.6-0.7,0.9-1.5,0.9-2.3s-0.3-1.6-0.9-2.3l-9.5-9.4c0.6-1,1-2.1,1.3-3.2c0.2-1,0.4-2,0.4-3
	c0-5.7-3.9-10.6-9.4-12C24.6,16.3,21.3,16.8,18.5,18.5z M26.9,20.7c3.9,1,6.6,4.4,6.6,8.4c0,0.7-0.1,1.4-0.3,2.1
	c-0.3,1-0.7,2-1.3,2.8c-0.6,0.9-1.4,1.6-2.2,2.2c-2,1.3-4.4,1.9-6.9,1.3c-3.9-1-6.6-4.4-6.6-8.4c0-0.7,0.1-1.4,0.3-2.1
	c0.6-2.2,1.9-4.1,3.9-5.3S24.7,20.1,26.9,20.7z"/>
<path class="st8" d="M35,36.1c-0.9,1.3-1.9,2.3-3.2,3.2c-0.3,0.2-0.5,0.3-0.8,0.5l0.9,0.8l0.1,0.1c0.2-0.1,0.4-0.2,0.6-0.4
	c1.4-1,2.6-2.1,3.6-3.5c0.1-0.1,0.2-0.4,0.3-0.7l-0.9-0.9C35.3,35.6,35.2,35.8,35,36.1z"/>
</svg>
