<?xml version="1.0" encoding="utf-8"?>
<!-- Generator: Adobe Illustrator 19.2.1, SVG Export Plug-In . SVG Version: 6.00 Build 0)  -->
<svg version="1.1" id="Layer_1" xmlns="http://www.w3.org/2000/svg" xmlns:xlink="http://www.w3.org/1999/xlink" x="0px" y="0px"
	 width="50px" height="50px" viewBox="0 0 50 50" enable-background="new 0 0 50 50" xml:space="preserve">
<path fill="#59B4D9" d="M39.75,50h-29.5C8.455,50,7,48.545,7,46.75V3.25C7,1.455,8.455,0,10.25,0h29.5C41.545,0,43,1.455,43,3.25
	v43.5C43,48.545,41.545,50,39.75,50z"/>
<path fill="#E5E5E5" d="M37.969,16H36.68c-0.498,0-0.906-0.408-0.906-0.906V6.406c0-0.498,0.408-0.906,0.906-0.906h1.289
	c0.498,0,0.906,0.408,0.906,0.906v8.688C38.875,15.592,38.467,16,37.969,16z"/>
<path fill="#E5E5E5" d="M37.324,39.375L37.324,39.375c-0.853,0-1.551-0.408-1.551-0.906V23.781c0-0.498,0.698-0.906,1.551-0.906l0,0
	c0.853,0,1.551,0.408,1.551,0.906v14.688C38.875,38.967,38.177,39.375,37.324,39.375z"/>
<path opacity="0.15" fill="#FFFFFF" enable-background="new    " d="M17.75,50h-7.5C8.455,50,7,48.545,7,46.75V3.25
	C7,1.455,8.455,0,10.25,0h17.5L17.75,50z"/>
<rect x="7" y="18.375" fill="#0072C6" width="36" height="2"/>
</svg>
