<?xml version="1.0" encoding="utf-8"?>
<!-- Generator: Adobe Illustrator 20.0.0, SVG Export Plug-In . SVG Version: 6.00 Build 0)  -->
<svg version="1.1" id="Layer_1" xmlns="http://www.w3.org/2000/svg" xmlns:xlink="http://www.w3.org/1999/xlink" x="0px" y="0px"
	 viewBox="0 0 32 32" style="enable-background:new 0 0 32 32;" xml:space="preserve">
<style type="text/css">
	.st0{fill:#7A4D86;}
	.st1{opacity:0.2;fill:#FFFFFF;enable-background:new    ;}
	.st2{fill:#666666;}
	.st3{fill:none;}
	.st4{fill:#FFFFFF;}
	.st5{fill:#59B3D8;}
	.st6{fill:#3E3E3E;}
</style>
<g>
	<path class="st0" d="M14.5,11.2c0,2.4-1.9,4.3-4.3,4.3s-4.3-1.9-4.3-4.3s1.9-4.3,4.3-4.3C12.5,6.9,14.5,8.8,14.5,11.2"/>
	<polygon class="st0" points="13.3,17 10.2,21.4 7,17 2,17 2,28 18,28 18,17 	"/>
	<path class="st1" d="M5.9,11.2c0,2.3,1.9,4.2,4.2,4.3L11.1,7c-0.3-0.1-0.6-0.1-1-0.1C7.8,6.9,5.9,8.8,5.9,11.2"/>
	<polygon class="st1" points="7,17 2,17 2,28 8.5,28 9.4,20.5 	"/>
	<path class="st2" d="M17,16h-3v-2h1v-2.8c0-3-2-5.5-5-5.5s-5,2.5-5,5.5V13H3v-1.8c0-3.9,3.1-7.1,7-7.1s7,3.2,7,7.1L17,16z"/>
	<path class="st1" d="M10.1,4.1C6.2,4.1,3,7.3,3,11.2V13h2v-1.8c0-3,2.2-5.5,5.3-5.5c0.5,0,0.8,0.1,1.2,0.2l0.1-1.6
		C11.2,4.2,10.6,4.1,10.1,4.1z"/>
	<rect x="-2" y="4" class="st3" width="24" height="24"/>
</g>
<g>
	<path class="st4" d="M22.5,14.6c0,4.2-1.9,7.7-4.3,7.7s-4.3-3.4-4.3-7.7s1.9-7.7,4.3-7.7C20.5,6.9,22.5,10.3,22.5,14.6"/>
	<polygon class="st4" points="23.3,17 20.2,21.4 17,17 12,17 12,28 28,28 28,17 	"/>
	<path class="st1" d="M15.9,10.2c0,2.3,1.9,4.2,4.2,4.3L21.1,6c-0.3-0.1-0.6-0.1-1-0.1C17.8,5.9,15.9,7.8,15.9,10.2"/>
	<polygon class="st1" points="17,17 12,17 12,29 18.5,29 19.4,20.8 	"/>
	<path class="st4" d="M27,18h-3v-2h1v-3.9c0-3.8-1.8-6.8-5-6.8s-5,3.1-5,6.8V14h-2v-1.9c0-4.8,2.9-8.8,7-8.8s7.2,4,7.2,8.8L27,18z"
		/>
	<rect x="13" y="13.9" class="st4" width="1.7" height="0.9"/>
</g>
<g>
	<path class="st5" d="M25.5,11.2c0,2.4-1.9,4.3-4.3,4.3s-4.3-1.9-4.3-4.3s1.9-4.3,4.3-4.3C23.5,6.9,25.5,8.8,25.5,11.2"/>
	<polygon class="st5" points="24.3,17 21.2,21.4 18,17 13,17 13,28 29,28 29,17 	"/>
	<path class="st1" d="M16.9,11.2c0,2.3,1.9,4.2,4.2,4.3L22.1,7c-0.3-0.1-0.6-0.1-1-0.1C18.8,6.9,16.9,8.8,16.9,11.2"/>
	<polygon class="st1" points="18,17 13,17 13,28 19.5,28 20.4,20.5 	"/>
	<path class="st6" d="M28,16h-3v-2h1v-2.8c0-3-2-5.5-5-5.5s-5,2.5-5,5.5V13h-2v-1.8c0-3.9,3.1-7.1,7-7.1s7,3.2,7,7.1L28,16z"/>
	<path class="st1" d="M21.1,4.1c-3.9,0-7.1,3.2-7.1,7.1V13h2v-1.8c0-3,2.2-5.5,5.3-5.5c0.5,0,0.8,0.1,1.2,0.2l0.1-1.6
		C22.2,4.2,21.6,4.1,21.1,4.1z"/>
	<rect x="9" y="4" class="st3" width="24" height="24"/>
</g>
</svg>
