<?xml version="1.0" encoding="utf-8"?>
<!-- Generator: Adobe Illustrator 19.2.1, SVG Export Plug-In . SVG Version: 6.00 Build 0)  -->
<svg version="1.1" id="Layer_1" xmlns="http://www.w3.org/2000/svg" xmlns:xlink="http://www.w3.org/1999/xlink" x="0px" y="0px"
	 width="50px" height="50px" viewBox="0 0 50 50" enable-background="new 0 0 50 50" xml:space="preserve">
<g>
	<g>
		<path fill="#7A7A7A" d="M25.776,36.503h4.957c1.803,0,2.817,0.807,3.605,2.422h-8.563c-1.352,0-2.253,1.587-2.253,2.939
			c0,1.352,1.014,2.713,2.253,2.713h8.563C33.55,46.193,32.536,47,30.734,47h-4.957c-2.704,0-4.845-2.544-4.845-5.248
			C20.931,39.047,23.185,36.503,25.776,36.503L25.776,36.503z"/>
		<path fill="#7A7A7A" d="M45.268,38.925h-8.563c0.789-1.615,1.803-2.422,3.605-2.422h4.957c2.704,0,4.732,2.657,4.732,5.361
			C50,44.568,47.859,47,45.268,47H40.31c-1.803,0-2.817-0.807-3.605-2.422h8.563c1.352,0,2.253-1.587,2.253-2.713
			C47.521,40.512,46.733,38.925,45.268,38.925L45.268,38.925z"/>
		<path fill="#7A7A7A" d="M41.663,42.963H29.494c-0.676,0-2.141-0.535-2.141-1.211s1.465-1.211,2.141-1.211h12.168
			c0.676,0,2.591,0.31,2.591,0.986C44.254,42.428,42.339,42.963,41.663,42.963z"/>
	</g>
</g>
<path fill="#3999C6" d="M49.7,22.075c0.5-0.5,0.4-1.3,0-1.8l-2.4-2.4l-10.8-10.5c-0.5-0.5-1.2-0.5-1.7,0l0,0c-0.5,0.5-0.6,1.3,0,1.8
	l11.3,11.1c0.5,0.5,0.5,1.3,0,1.8l-11.5,11.5c-0.5,0.5-0.5,1.3,0,1.8l0,0c0.5,0.5,1.3,0.4,1.7,0l10.7-10.6c0,0,0,0,0.1-0.1
	L49.7,22.075z"/>
<path fill="#3999C6" d="M0.3,22.075c-0.5-0.5-0.4-1.3,0-1.8l2.4-2.4l10.8-10.5c0.5-0.5,1.2-0.5,1.7,0l0,0c0.5,0.5,0.6,1.3,0,1.8
	l-11.1,11.1c-0.5,0.5-0.5,1.3,0,1.8l11.3,11.5c0.5,0.5,0.5,1.3,0,1.8l0,0c-0.5,0.5-1.3,0.4-1.7,0l-10.9-10.5c0,0,0,0-0.1-0.1
	L0.3,22.075z"/>
<circle fill="#7FBA00" cx="35.2" cy="21.175" r="3.3"/>
<circle fill="#7FBA00" cx="24.9" cy="21.175" r="3.3"/>
<circle fill="#7FBA00" cx="14.8" cy="21.175" r="3.3"/>
</svg>
